<svg width="1440" height="726" viewBox="0 0 1440 726" fill="none" xmlns="http://www.w3.org/2000/svg">
<rect width="1440" height="726" fill="white"/>
<path d="M121.26 114V104.06H124.284C125.32 104.06 126.146 104.331 126.762 104.872C127.387 105.404 127.7 106.146 127.7 107.098C127.7 108.05 127.387 108.797 126.762 109.338C126.146 109.87 125.32 110.136 124.284 110.136H122.464V114H121.26ZM122.464 108.96H124.144C124.928 108.96 125.507 108.801 125.88 108.484C126.253 108.157 126.44 107.695 126.44 107.098C126.44 106.491 126.253 106.029 125.88 105.712C125.507 105.395 124.928 105.236 124.144 105.236H122.464V108.96ZM132.595 114.224C131.419 114.224 130.513 113.776 129.879 112.88C129.244 111.984 128.927 110.705 128.927 109.044C128.927 107.373 129.244 106.09 129.879 105.194C130.513 104.289 131.419 103.836 132.595 103.836C133.771 103.836 134.676 104.289 135.311 105.194C135.945 106.09 136.263 107.373 136.263 109.044C136.263 110.705 135.945 111.984 135.311 112.88C134.676 113.776 133.771 114.224 132.595 114.224ZM132.595 113.048C133.369 113.048 133.962 112.707 134.373 112.026C134.793 111.335 135.003 110.341 135.003 109.044C135.003 107.737 134.793 106.739 134.373 106.048C133.962 105.357 133.369 105.012 132.595 105.012C131.829 105.012 131.237 105.357 130.817 106.048C130.397 106.739 130.187 107.737 130.187 109.044C130.187 110.341 130.397 111.335 130.817 112.026C131.237 112.707 131.829 113.048 132.595 113.048ZM138.189 114V104.06H139.393V112.824H144.349V114H138.189ZM146.304 114V112.824H148.782V105.236H146.304V104.06H152.464V105.236H149.986V112.824H152.464V114H146.304ZM157.806 114.224C157.013 114.224 156.341 114.014 155.79 113.594C155.239 113.174 154.819 112.577 154.53 111.802C154.25 111.027 154.11 110.108 154.11 109.044C154.11 107.971 154.25 107.047 154.53 106.272C154.819 105.497 155.239 104.9 155.79 104.48C156.341 104.051 157.013 103.836 157.806 103.836C158.683 103.836 159.43 104.125 160.046 104.704C160.662 105.273 161.073 106.071 161.278 107.098L159.99 107.182C159.831 106.463 159.556 105.922 159.164 105.558C158.781 105.194 158.329 105.012 157.806 105.012C157.013 105.012 156.406 105.362 155.986 106.062C155.575 106.762 155.37 107.756 155.37 109.044C155.37 110.323 155.575 111.312 155.986 112.012C156.406 112.703 157.013 113.048 157.806 113.048C158.385 113.048 158.875 112.847 159.276 112.446C159.677 112.045 159.948 111.447 160.088 110.654L161.362 110.724C161.185 111.816 160.783 112.675 160.158 113.3C159.533 113.916 158.749 114.224 157.806 114.224ZM163.093 114V112.824H165.571V105.236H163.093V104.06H169.253V105.236H166.775V112.824H169.253V114H163.093ZM171.627 114V104.06H177.675V105.236H172.831V108.442H177.507V109.59H172.831V112.824H177.787V114H171.627ZM183.116 114.224C182.416 114.224 181.795 114.079 181.254 113.79C180.712 113.501 180.278 113.104 179.952 112.6C179.625 112.087 179.434 111.494 179.378 110.822L180.638 110.738C180.74 111.475 181.006 112.045 181.436 112.446C181.874 112.847 182.444 113.048 183.144 113.048C183.834 113.048 184.362 112.917 184.726 112.656C185.099 112.395 185.286 112.021 185.286 111.536C185.286 111.219 185.211 110.943 185.062 110.71C184.922 110.467 184.651 110.243 184.25 110.038C183.858 109.833 183.274 109.623 182.5 109.408C181.809 109.212 181.249 108.997 180.82 108.764C180.4 108.531 180.092 108.246 179.896 107.91C179.709 107.574 179.616 107.159 179.616 106.664C179.616 106.104 179.746 105.614 180.008 105.194C180.278 104.765 180.661 104.433 181.156 104.2C181.65 103.957 182.238 103.836 182.92 103.836C183.601 103.836 184.184 103.976 184.67 104.256C185.155 104.527 185.538 104.9 185.818 105.376C186.107 105.852 186.289 106.393 186.364 107L185.104 107.084C185.02 106.477 184.796 105.983 184.432 105.6C184.077 105.208 183.564 105.012 182.892 105.012C182.276 105.012 181.786 105.161 181.422 105.46C181.058 105.749 180.876 106.132 180.876 106.608C180.876 106.916 180.941 107.173 181.072 107.378C181.212 107.574 181.454 107.751 181.8 107.91C182.145 108.059 182.63 108.223 183.256 108.4C184.068 108.624 184.712 108.876 185.188 109.156C185.673 109.436 186.018 109.772 186.224 110.164C186.438 110.547 186.546 111.013 186.546 111.564C186.546 112.087 186.401 112.549 186.112 112.95C185.822 113.351 185.421 113.664 184.908 113.888C184.394 114.112 183.797 114.224 183.116 114.224Z" fill="#535862"/>
<path d="M132.15 146.338H137.82V191.59H132.15V146.338ZM122.484 157.03H146.406V162.538H122.484V157.03ZM132.204 159.352L135.822 161.026C135.21 162.97 134.472 165.004 133.608 167.128C132.744 169.216 131.79 171.286 130.746 173.338C129.702 175.39 128.622 177.316 127.506 179.116C126.39 180.916 125.256 182.482 124.104 183.814C123.816 182.986 123.366 182.032 122.754 180.952C122.178 179.872 121.656 178.972 121.188 178.252C122.268 177.136 123.348 175.822 124.428 174.31C125.508 172.798 126.534 171.196 127.506 169.504C128.514 167.776 129.414 166.048 130.206 164.32C131.034 162.556 131.7 160.9 132.204 159.352ZM142.194 141.532L146.352 145.852C144.264 146.68 141.96 147.436 139.44 148.12C136.92 148.804 134.328 149.398 131.664 149.902C129 150.406 126.408 150.82 123.888 151.144C123.78 150.496 123.546 149.74 123.186 148.876C122.862 148.012 122.538 147.292 122.214 146.716C124.626 146.32 127.056 145.87 129.504 145.366C131.988 144.826 134.328 144.232 136.524 143.584C138.756 142.9 140.646 142.216 142.194 141.532ZM137.55 164.158C137.982 164.518 138.612 165.094 139.44 165.886C140.304 166.678 141.222 167.56 142.194 168.532C143.166 169.468 144.048 170.332 144.84 171.124C145.632 171.916 146.19 172.492 146.514 172.852L143.058 177.226C142.626 176.542 142.032 175.732 141.276 174.796C140.556 173.824 139.782 172.834 138.954 171.826C138.126 170.818 137.316 169.864 136.524 168.964C135.732 168.064 135.066 167.344 134.526 166.804L137.55 164.158ZM153.372 142.45L159.96 143.53C159.42 147.094 158.808 150.802 158.124 154.654C157.44 158.47 156.684 162.268 155.856 166.048C155.064 169.828 154.236 173.446 153.372 176.902C152.544 180.322 151.734 183.436 150.942 186.244L145.326 185.056C146.118 182.248 146.91 179.098 147.702 175.606C148.53 172.078 149.304 168.424 150.024 164.644C150.744 160.828 151.392 157.03 151.968 153.25C152.544 149.434 153.012 145.834 153.372 142.45ZM140.844 183.598C143.04 183.418 145.614 183.184 148.566 182.896C151.518 182.572 154.668 182.248 158.016 181.924C161.364 181.564 164.712 181.204 168.06 180.844L168.168 186.136C165.144 186.568 162.084 187 158.988 187.432C155.892 187.864 152.904 188.278 150.024 188.674C147.18 189.07 144.57 189.412 142.194 189.7L140.844 183.598ZM159.366 169.288L164.874 167.668C166.062 170.008 167.178 172.528 168.222 175.228C169.266 177.892 170.166 180.484 170.922 183.004C171.714 185.524 172.254 187.774 172.542 189.754L166.44 191.698C166.188 189.754 165.702 187.504 164.982 184.948C164.298 182.356 163.47 179.71 162.498 177.01C161.526 174.274 160.482 171.7 159.366 169.288ZM199.11 144.07C198.93 144.754 198.732 145.6 198.516 146.608C198.3 147.58 198.138 148.354 198.03 148.93C197.778 150.19 197.472 151.702 197.112 153.466C196.752 155.194 196.338 157.03 195.87 158.974C195.438 160.918 194.988 162.79 194.52 164.59C194.052 166.498 193.476 168.568 192.792 170.8C192.108 173.032 191.37 175.282 190.578 177.55C189.822 179.818 189.048 181.996 188.256 184.084C187.464 186.136 186.708 187.954 185.988 189.538L179.238 187.27C180.066 185.902 180.912 184.228 181.776 182.248C182.64 180.268 183.486 178.162 184.314 175.93C185.178 173.662 185.97 171.412 186.69 169.18C187.41 166.948 188.022 164.896 188.526 163.024C188.886 161.728 189.21 160.414 189.498 159.082C189.822 157.714 190.11 156.4 190.362 155.14C190.65 153.844 190.884 152.638 191.064 151.522C191.28 150.406 191.442 149.452 191.55 148.66C191.658 147.724 191.73 146.788 191.766 145.852C191.802 144.88 191.784 144.088 191.712 143.476L199.11 144.07ZM185.826 152.386C187.986 152.386 190.236 152.296 192.576 152.116C194.952 151.9 197.346 151.594 199.758 151.198C202.206 150.766 204.582 150.28 206.886 149.74V155.788C204.654 156.292 202.278 156.724 199.758 157.084C197.274 157.444 194.826 157.732 192.414 157.948C190.002 158.128 187.788 158.218 185.772 158.218C184.512 158.218 183.36 158.2 182.316 158.164C181.272 158.092 180.264 158.038 179.292 158.002L179.13 152.008C180.498 152.152 181.686 152.26 182.694 152.332C183.738 152.368 184.782 152.386 185.826 152.386ZM202.836 160.432C204.348 160.288 205.986 160.18 207.75 160.108C209.55 160 211.332 159.946 213.096 159.946C214.644 159.946 216.21 159.982 217.794 160.054C219.414 160.09 220.998 160.198 222.546 160.378L222.384 166.21C221.016 166.03 219.54 165.886 217.956 165.778C216.408 165.634 214.806 165.562 213.15 165.562C211.35 165.562 209.604 165.616 207.912 165.724C206.22 165.796 204.528 165.922 202.836 166.102V160.432ZM205.266 173.878C205.05 174.67 204.87 175.48 204.726 176.308C204.582 177.136 204.51 177.856 204.51 178.468C204.51 179.08 204.618 179.656 204.834 180.196C205.086 180.736 205.5 181.204 206.076 181.6C206.652 181.996 207.444 182.32 208.452 182.572C209.496 182.788 210.81 182.896 212.394 182.896C214.194 182.896 216.012 182.806 217.848 182.626C219.684 182.41 221.538 182.122 223.41 181.762L223.194 187.972C221.682 188.152 220.026 188.314 218.226 188.458C216.426 188.638 214.464 188.728 212.34 188.728C207.876 188.728 204.456 188.008 202.08 186.568C199.74 185.092 198.57 183.004 198.57 180.304C198.57 179.116 198.66 177.928 198.84 176.74C199.056 175.552 199.272 174.418 199.488 173.338L205.266 173.878ZM251.976 144.178C251.724 145.042 251.508 145.924 251.328 146.824C251.148 147.724 250.968 148.588 250.788 149.416C250.608 150.28 250.392 151.288 250.14 152.44C249.924 153.592 249.672 154.834 249.384 156.166C249.096 157.462 248.79 158.794 248.466 160.162C248.178 161.494 247.854 162.772 247.494 163.996C247.17 165.22 246.828 166.336 246.468 167.344C248.736 166.012 250.986 165.076 253.218 164.536C255.486 163.96 257.88 163.672 260.4 163.672C263.316 163.672 265.836 164.14 267.96 165.076C270.084 166.012 271.74 167.326 272.928 169.018C274.116 170.71 274.71 172.69 274.71 174.958C274.71 177.91 274.008 180.412 272.604 182.464C271.236 184.516 269.274 186.118 266.718 187.27C264.162 188.422 261.12 189.16 257.592 189.484C254.064 189.808 250.14 189.754 245.82 189.322L244.2 183.112C247.188 183.58 250.104 183.814 252.948 183.814C255.828 183.778 258.402 183.472 260.67 182.896C262.974 182.32 264.792 181.402 266.124 180.142C267.492 178.846 268.176 177.172 268.176 175.12C268.176 173.392 267.456 171.916 266.016 170.692C264.576 169.468 262.47 168.856 259.698 168.856C256.566 168.856 253.65 169.396 250.95 170.476C248.286 171.556 246.126 173.14 244.47 175.228C244.182 175.624 243.912 176.002 243.66 176.362C243.408 176.722 243.156 177.136 242.904 177.604L237.18 175.606C238.188 173.626 239.124 171.394 239.988 168.91C240.852 166.426 241.626 163.924 242.31 161.404C242.994 158.884 243.552 156.544 243.984 154.384C244.416 152.188 244.722 150.406 244.902 149.038C245.046 147.958 245.136 147.04 245.172 146.284C245.208 145.528 245.19 144.718 245.118 143.854L251.976 144.178ZM233.724 150.658C235.38 150.91 237.198 151.144 239.178 151.36C241.158 151.54 242.976 151.63 244.632 151.63C246.36 151.63 248.268 151.576 250.356 151.468C252.444 151.36 254.64 151.198 256.944 150.982C259.248 150.766 261.57 150.496 263.91 150.172C266.25 149.812 268.5 149.398 270.66 148.93L270.768 154.762C269.004 155.05 267.024 155.338 264.828 155.626C262.632 155.914 260.346 156.166 257.97 156.382C255.594 156.598 253.272 156.778 251.004 156.922C248.736 157.066 246.63 157.138 244.686 157.138C242.706 157.138 240.78 157.102 238.908 157.03C237.072 156.922 235.362 156.796 233.778 156.652L233.724 150.658ZM313.536 150.01C313.14 152.782 312.654 155.716 312.078 158.812C311.538 161.872 310.8 164.968 309.864 168.1C308.784 171.736 307.56 174.85 306.192 177.442C304.824 180.034 303.312 182.014 301.656 183.382C300.036 184.75 298.29 185.434 296.418 185.434C294.546 185.434 292.8 184.786 291.18 183.49C289.56 182.194 288.246 180.394 287.238 178.09C286.266 175.75 285.78 173.086 285.78 170.098C285.78 167.038 286.41 164.14 287.67 161.404C288.93 158.668 290.658 156.238 292.854 154.114C295.086 151.99 297.678 150.334 300.63 149.146C303.618 147.922 306.84 147.31 310.296 147.31C313.572 147.31 316.524 147.85 319.152 148.93C321.816 149.974 324.084 151.45 325.956 153.358C327.828 155.23 329.268 157.426 330.276 159.946C331.284 162.466 331.788 165.166 331.788 168.046C331.788 171.826 330.996 175.192 329.412 178.144C327.864 181.096 325.578 183.526 322.554 185.434C319.53 187.342 315.768 188.62 311.268 189.268L307.65 183.544C308.658 183.436 309.558 183.31 310.35 183.166C311.142 183.022 311.898 182.878 312.618 182.734C314.346 182.338 315.966 181.726 317.478 180.898C319.026 180.07 320.376 179.044 321.528 177.82C322.68 176.56 323.58 175.102 324.228 173.446C324.912 171.754 325.254 169.882 325.254 167.83C325.254 165.67 324.912 163.69 324.228 161.89C323.58 160.09 322.608 158.524 321.312 157.192C320.016 155.824 318.432 154.78 316.56 154.06C314.724 153.304 312.6 152.926 310.188 152.926C307.272 152.926 304.68 153.448 302.412 154.492C300.18 155.536 298.29 156.886 296.742 158.542C295.194 160.198 294.006 161.998 293.178 163.942C292.386 165.886 291.99 167.74 291.99 169.504C291.99 171.412 292.224 173.014 292.692 174.31C293.16 175.57 293.736 176.524 294.42 177.172C295.14 177.784 295.86 178.09 296.58 178.09C297.372 178.09 298.164 177.694 298.956 176.902C299.748 176.11 300.522 174.886 301.278 173.23C302.07 171.538 302.862 169.396 303.654 166.804C304.446 164.212 305.13 161.458 305.706 158.542C306.282 155.59 306.696 152.692 306.948 149.848L313.536 150.01ZM362.946 165.346L367.59 163.024C368.562 164.284 369.516 165.652 370.452 167.128C371.424 168.568 372.288 170.008 373.044 171.448C373.8 172.852 374.376 174.13 374.772 175.282L369.75 177.928C369.39 176.776 368.85 175.48 368.13 174.04C367.41 172.564 366.6 171.07 365.7 169.558C364.8 168.046 363.882 166.642 362.946 165.346ZM364.296 150.604H384.006V156.112H364.296V150.604ZM381.576 150.604H387.138C387.138 150.604 387.138 150.784 387.138 151.144C387.138 151.504 387.138 151.9 387.138 152.332C387.138 152.764 387.12 153.106 387.084 153.358C386.904 159.334 386.706 164.41 386.49 168.586C386.274 172.762 386.022 176.218 385.734 178.954C385.446 181.654 385.104 183.778 384.708 185.326C384.312 186.838 383.844 187.954 383.304 188.674C382.584 189.61 381.828 190.258 381.036 190.618C380.28 191.014 379.344 191.284 378.228 191.428C377.292 191.572 376.05 191.626 374.502 191.59C372.954 191.59 371.388 191.572 369.804 191.536C369.768 190.672 369.57 189.682 369.21 188.566C368.85 187.486 368.4 186.532 367.86 185.704C369.588 185.848 371.19 185.938 372.666 185.974C374.142 186.01 375.222 186.028 375.906 186.028C376.446 186.028 376.896 185.974 377.256 185.866C377.616 185.722 377.94 185.47 378.228 185.11C378.696 184.642 379.092 183.688 379.416 182.248C379.776 180.808 380.082 178.774 380.334 176.146C380.586 173.518 380.802 170.206 380.982 166.21C381.198 162.178 381.396 157.372 381.576 151.792V150.604ZM365.106 141.208L371.1 142.558C370.344 145.186 369.426 147.778 368.346 150.334C367.302 152.89 366.15 155.284 364.89 157.516C363.63 159.712 362.316 161.638 360.948 163.294C360.552 162.934 360.03 162.538 359.382 162.106C358.77 161.674 358.122 161.242 357.438 160.81C356.79 160.378 356.232 160.036 355.764 159.784C357.168 158.308 358.446 156.598 359.598 154.654C360.786 152.674 361.848 150.532 362.784 148.228C363.72 145.924 364.494 143.584 365.106 141.208ZM345.99 141.316L351.12 143.152C350.4 144.52 349.644 145.924 348.852 147.364C348.06 148.804 347.286 150.208 346.53 151.576C345.774 152.908 345.036 154.06 344.316 155.032L340.374 153.412C341.058 152.332 341.742 151.09 342.426 149.686C343.11 148.282 343.758 146.842 344.37 145.366C345.018 143.89 345.558 142.54 345.99 141.316ZM352.47 147.634L357.384 149.686C356.088 151.738 354.666 153.898 353.118 156.166C351.57 158.398 350.004 160.558 348.42 162.646C346.872 164.698 345.396 166.498 343.992 168.046L340.482 166.21C341.526 165.022 342.588 163.654 343.668 162.106C344.784 160.558 345.864 158.956 346.908 157.3C347.988 155.608 348.996 153.934 349.932 152.278C350.904 150.622 351.75 149.074 352.47 147.634ZM337.62 153.682L340.374 149.74C341.346 150.568 342.336 151.486 343.344 152.494C344.352 153.466 345.27 154.438 346.098 155.41C346.962 156.382 347.628 157.282 348.096 158.11L345.126 162.592C344.658 161.728 344.01 160.774 343.182 159.73C342.39 158.686 341.49 157.642 340.482 156.598C339.51 155.518 338.556 154.546 337.62 153.682ZM351.012 160.486L355.17 158.704C355.926 159.892 356.646 161.17 357.33 162.538C358.014 163.906 358.608 165.238 359.112 166.534C359.652 167.83 360.048 169 360.3 170.044L355.872 172.096C355.62 171.052 355.242 169.864 354.738 168.532C354.27 167.2 353.712 165.832 353.064 164.428C352.416 163.024 351.732 161.71 351.012 160.486ZM337.566 165.184C340.05 165.112 343.02 165.004 346.476 164.86C349.932 164.716 353.478 164.554 357.114 164.374L357.06 168.964C353.676 169.216 350.31 169.45 346.962 169.666C343.65 169.882 340.662 170.08 337.998 170.26L337.566 165.184ZM352.092 173.878L356.358 172.474C357.114 174.094 357.816 175.876 358.464 177.82C359.148 179.728 359.634 181.366 359.922 182.734L355.332 184.354C355.08 182.95 354.648 181.276 354.036 179.332C353.424 177.352 352.776 175.534 352.092 173.878ZM340.05 172.744L344.856 173.608C344.568 176.2 344.118 178.756 343.506 181.276C342.93 183.76 342.246 185.866 341.454 187.594C341.094 187.378 340.644 187.144 340.104 186.892C339.564 186.604 339.006 186.334 338.43 186.082C337.89 185.794 337.404 185.578 336.972 185.434C337.8 183.814 338.448 181.87 338.916 179.602C339.42 177.334 339.798 175.048 340.05 172.744ZM346.314 167.668H351.444V191.752H346.314V167.668ZM393.942 146.5H440.22V151.846H393.942V146.5ZM413.922 141.316H419.97V191.698H413.922V141.316ZM413.49 170.368L418.35 172.474C417.054 174.382 415.542 176.218 413.814 177.982C412.122 179.71 410.286 181.348 408.306 182.896C406.362 184.408 404.31 185.794 402.15 187.054C400.026 188.314 397.902 189.394 395.778 190.294C395.49 189.79 395.112 189.232 394.644 188.62C394.176 188.008 393.69 187.414 393.186 186.838C392.682 186.262 392.214 185.776 391.782 185.38C393.87 184.66 395.958 183.778 398.046 182.734C400.17 181.654 402.186 180.448 404.094 179.116C406.002 177.784 407.748 176.38 409.332 174.904C410.952 173.428 412.338 171.916 413.49 170.368ZM420.834 170.638C422.346 172.654 424.254 174.616 426.558 176.524C428.862 178.396 431.382 180.088 434.118 181.6C436.89 183.112 439.662 184.336 442.434 185.272C442.002 185.668 441.516 186.172 440.976 186.784C440.436 187.36 439.932 187.954 439.464 188.566C438.996 189.214 438.6 189.808 438.276 190.348C435.468 189.196 432.696 187.72 429.96 185.92C427.224 184.084 424.65 182.05 422.238 179.818C419.826 177.55 417.756 175.174 416.028 172.69L420.834 170.638ZM403.122 161.728V168.37H430.932V161.728H403.122ZM397.506 156.598H436.872V173.5H397.506V156.598ZM469.866 143.854C469.65 144.862 469.344 146.14 468.948 147.688C468.588 149.2 468.03 150.91 467.274 152.818C466.698 154.222 465.996 155.68 465.168 157.192C464.376 158.704 463.548 160.054 462.684 161.242C463.224 160.954 463.872 160.72 464.628 160.54C465.42 160.324 466.212 160.162 467.004 160.054C467.832 159.946 468.57 159.892 469.218 159.892C471.45 159.892 473.304 160.54 474.78 161.836C476.256 163.096 476.994 164.932 476.994 167.344C476.994 168.064 476.994 168.946 476.994 169.99C477.03 171.034 477.048 172.132 477.048 173.284C477.084 174.436 477.12 175.57 477.156 176.686C477.192 177.766 477.21 178.738 477.21 179.602H471.378C471.45 178.954 471.504 178.198 471.54 177.334C471.576 176.434 471.594 175.498 471.594 174.526C471.63 173.518 471.648 172.564 471.648 171.664C471.648 170.764 471.648 169.954 471.648 169.234C471.648 167.542 471.18 166.354 470.244 165.67C469.308 164.986 468.246 164.644 467.058 164.644C465.474 164.644 463.89 165.022 462.306 165.778C460.758 166.498 459.444 167.38 458.364 168.424C457.572 169.216 456.78 170.098 455.988 171.07C455.196 172.042 454.332 173.122 453.396 174.31L448.212 170.422C450.588 168.154 452.64 165.994 454.368 163.942C456.096 161.89 457.536 159.892 458.688 157.948C459.84 155.968 460.776 154.06 461.496 152.224C462.036 150.748 462.486 149.236 462.846 147.688C463.206 146.14 463.422 144.682 463.494 143.314L469.866 143.854ZM450.048 149.092C451.452 149.272 453.036 149.416 454.8 149.524C456.564 149.632 458.112 149.686 459.444 149.686C461.82 149.686 464.412 149.632 467.22 149.524C470.064 149.416 472.926 149.236 475.806 148.984C478.686 148.696 481.422 148.336 484.014 147.904V153.52C482.106 153.808 480.054 154.06 477.858 154.276C475.662 154.456 473.43 154.618 471.162 154.762C468.93 154.87 466.77 154.96 464.682 155.032C462.63 155.068 460.776 155.086 459.12 155.086C458.364 155.086 457.464 155.086 456.42 155.086C455.412 155.05 454.35 154.996 453.234 154.924C452.118 154.852 451.056 154.798 450.048 154.762V149.092ZM492.384 163.78C491.844 163.924 491.214 164.122 490.494 164.374C489.81 164.626 489.108 164.896 488.388 165.184C487.668 165.436 487.02 165.67 486.444 165.886C484.644 166.606 482.538 167.47 480.126 168.478C477.75 169.45 475.302 170.584 472.782 171.88C471.09 172.744 469.65 173.608 468.462 174.472C467.274 175.336 466.356 176.236 465.708 177.172C465.096 178.072 464.79 179.062 464.79 180.142C464.79 180.97 464.97 181.654 465.33 182.194C465.69 182.734 466.23 183.148 466.95 183.436C467.67 183.724 468.552 183.94 469.596 184.084C470.64 184.192 471.828 184.246 473.16 184.246C475.392 184.246 477.876 184.12 480.612 183.868C483.384 183.58 485.958 183.22 488.334 182.788L488.118 188.998C486.894 189.142 485.4 189.286 483.636 189.43C481.908 189.61 480.108 189.736 478.236 189.808C476.4 189.88 474.654 189.916 472.998 189.916C470.262 189.916 467.796 189.646 465.6 189.106C463.404 188.602 461.658 187.72 460.362 186.46C459.102 185.164 458.472 183.382 458.472 181.114C458.472 179.314 458.886 177.694 459.714 176.254C460.542 174.778 461.64 173.446 463.008 172.258C464.376 171.034 465.87 169.936 467.49 168.964C469.146 167.992 470.766 167.092 472.35 166.264C474.042 165.4 475.59 164.662 476.994 164.05C478.398 163.402 479.694 162.826 480.882 162.322C482.106 161.782 483.276 161.26 484.392 160.756C485.364 160.324 486.3 159.892 487.2 159.46C488.136 159.028 489.054 158.578 489.954 158.11L492.384 163.78ZM512.04 190.51C510.96 189.142 509.736 187.756 508.368 186.352C507.036 184.912 505.686 183.526 504.318 182.194C502.95 180.826 501.618 179.62 500.322 178.576L505.398 174.202C506.658 175.246 508.026 176.47 509.502 177.874C510.978 179.278 512.382 180.7 513.714 182.14C515.082 183.58 516.252 184.894 517.224 186.082L512.04 190.51ZM126.966 203.34H142.464V236.226H126.966V230.934H137.118V208.578H126.966V203.34ZM127.02 216.948H139.278V222.132H127.02V216.948ZM150.024 202.476H167.034V207.876H150.024V202.476ZM150.024 215.436H167.034V220.674H150.024V215.436ZM149.862 228.342H166.98V233.58H149.862V228.342ZM123.888 203.34H129.288V241.032H123.888V203.34ZM164.874 202.476H170.652V243.84C170.652 245.424 170.454 246.648 170.058 247.512C169.662 248.412 168.96 249.096 167.952 249.564C166.944 250.032 165.648 250.32 164.064 250.428C162.48 250.572 160.554 250.644 158.286 250.644C158.214 250.104 158.07 249.492 157.854 248.808C157.638 248.124 157.386 247.44 157.098 246.756C156.846 246.072 156.558 245.496 156.234 245.028C157.278 245.064 158.286 245.082 159.258 245.082C160.266 245.082 161.166 245.082 161.958 245.082C162.75 245.082 163.29 245.082 163.578 245.082C164.082 245.082 164.424 244.992 164.604 244.812C164.784 244.596 164.874 244.272 164.874 243.84V202.476ZM146.568 202.476H152.292V221.97C152.292 224.31 152.148 226.794 151.86 229.422C151.608 232.014 151.086 234.624 150.294 237.252C149.538 239.88 148.404 242.382 146.892 244.758C145.38 247.134 143.4 249.24 140.952 251.076C140.664 250.68 140.25 250.23 139.71 249.726C139.17 249.222 138.612 248.736 138.036 248.268C137.496 247.8 137.01 247.44 136.578 247.188C138.882 245.496 140.7 243.624 142.032 241.572C143.364 239.52 144.354 237.378 145.002 235.146C145.686 232.914 146.118 230.682 146.298 228.45C146.478 226.218 146.568 224.058 146.568 221.97V202.476ZM211.854 212.088L218.01 213.87C215.742 220.386 212.808 226.02 209.208 230.772C205.644 235.524 201.378 239.538 196.41 242.814C191.478 246.09 185.772 248.754 179.292 250.806C179.076 250.302 178.752 249.708 178.32 249.024C177.888 248.34 177.42 247.638 176.916 246.918C176.448 246.198 176.016 245.622 175.62 245.19C181.884 243.462 187.374 241.158 192.09 238.278C196.806 235.398 200.802 231.798 204.078 227.478C207.354 223.158 209.946 218.028 211.854 212.088ZM189.93 212.466C191.802 217.938 194.376 222.852 197.652 227.208C200.928 231.528 204.96 235.2 209.748 238.224C214.572 241.248 220.188 243.498 226.596 244.974C226.164 245.406 225.678 245.964 225.138 246.648C224.598 247.368 224.076 248.088 223.572 248.808C223.104 249.528 222.726 250.158 222.438 250.698C215.706 248.97 209.892 246.432 204.996 243.084C200.136 239.736 196.014 235.65 192.63 230.826C189.246 226.002 186.42 220.458 184.152 214.194L189.93 212.466ZM176.484 209.01H225.786V214.68H176.484V209.01ZM197.976 200.262H203.97V212.466H197.976V200.262ZM253.92 201.666H259.806V240.87C259.806 241.95 259.878 242.76 260.022 243.3C260.166 243.804 260.472 244.146 260.94 244.326C261.408 244.506 262.092 244.596 262.992 244.596C263.316 244.596 263.856 244.596 264.612 244.596C265.404 244.596 266.268 244.596 267.204 244.596C268.176 244.596 269.058 244.596 269.85 244.596C270.678 244.596 271.272 244.596 271.632 244.596C272.568 244.596 273.252 244.344 273.684 243.84C274.152 243.3 274.494 242.328 274.71 240.924C274.926 239.52 275.088 237.54 275.196 234.984C275.916 235.524 276.798 236.028 277.842 236.496C278.886 236.964 279.804 237.288 280.596 237.468C280.38 240.528 280.002 242.976 279.462 244.812C278.922 246.648 278.076 247.962 276.924 248.754C275.808 249.582 274.206 249.996 272.118 249.996C271.83 249.996 271.344 249.996 270.66 249.996C270.012 249.996 269.274 249.996 268.446 249.996C267.618 249.996 266.772 249.996 265.908 249.996C265.08 249.996 264.342 249.996 263.694 249.996C263.046 249.996 262.578 249.996 262.29 249.996C260.13 249.996 258.438 249.726 257.214 249.186C256.026 248.646 255.18 247.71 254.676 246.378C254.172 245.046 253.92 243.192 253.92 240.816V201.666ZM274.17 210.684L278.436 215.706C276.456 217.146 274.314 218.568 272.01 219.972C269.706 221.376 267.33 222.726 264.882 224.022C262.434 225.282 260.04 226.47 257.7 227.586C257.484 226.902 257.142 226.128 256.674 225.264C256.206 224.4 255.756 223.644 255.324 222.996C257.592 221.88 259.86 220.638 262.128 219.27C264.432 217.866 266.628 216.426 268.716 214.95C270.804 213.474 272.622 212.052 274.17 210.684ZM243.768 201.018L249.492 202.908C248.124 206.112 246.504 209.28 244.632 212.412C242.796 215.544 240.798 218.496 238.638 221.268C236.514 224.004 234.318 226.398 232.05 228.45C231.87 227.946 231.564 227.316 231.132 226.56C230.736 225.804 230.322 225.048 229.89 224.292C229.458 223.5 229.062 222.87 228.702 222.402C230.682 220.71 232.608 218.73 234.48 216.462C236.352 214.194 238.08 211.746 239.664 209.118C241.284 206.454 242.652 203.754 243.768 201.018ZM237.936 215.922L243.66 210.198L243.714 210.306V250.59H237.936V215.922ZM301.602 203.394C301.422 204.438 301.278 205.554 301.17 206.742C301.062 207.93 300.99 209.046 300.954 210.09C300.882 211.566 300.81 213.384 300.738 215.544C300.666 217.668 300.594 219.918 300.522 222.294C300.45 224.67 300.396 227.01 300.36 229.314C300.324 231.582 300.306 233.598 300.306 235.362C300.306 237.198 300.648 238.674 301.332 239.79C302.016 240.87 302.934 241.644 304.086 242.112C305.274 242.58 306.624 242.814 308.136 242.814C310.404 242.814 312.474 242.508 314.346 241.896C316.254 241.284 317.964 240.474 319.476 239.466C320.988 238.422 322.356 237.234 323.58 235.902C324.804 234.57 325.902 233.184 326.874 231.744L331.248 237.09C330.348 238.35 329.196 239.7 327.792 241.14C326.424 242.544 324.786 243.876 322.878 245.136C320.97 246.36 318.774 247.35 316.29 248.106C313.806 248.898 311.052 249.294 308.028 249.294C305.184 249.294 302.7 248.862 300.576 247.998C298.452 247.134 296.796 245.766 295.608 243.894C294.456 241.986 293.88 239.52 293.88 236.496C293.88 235.02 293.898 233.328 293.934 231.42C293.97 229.476 294.006 227.478 294.042 225.426C294.114 223.374 294.168 221.358 294.204 219.378C294.276 217.398 294.33 215.598 294.366 213.978C294.402 212.358 294.42 211.062 294.42 210.09C294.42 208.866 294.366 207.678 294.258 206.526C294.15 205.374 293.988 204.312 293.772 203.34L301.602 203.394ZM338.415 209.226C339.495 209.19 340.503 209.154 341.439 209.118C342.375 209.046 343.095 208.992 343.599 208.956C344.643 208.848 345.975 208.722 347.595 208.578C349.251 208.398 351.105 208.218 353.157 208.038C355.209 207.858 357.405 207.678 359.745 207.498C362.085 207.282 364.497 207.066 366.981 206.85C368.889 206.706 370.761 206.58 372.597 206.472C374.433 206.328 376.161 206.202 377.781 206.094C379.401 205.986 380.841 205.914 382.101 205.878V212.088C381.129 212.088 379.995 212.106 378.699 212.142C377.439 212.178 376.179 212.25 374.919 212.358C373.695 212.43 372.597 212.592 371.625 212.844C369.933 213.348 368.367 214.14 366.927 215.22C365.523 216.3 364.299 217.578 363.255 219.054C362.211 220.494 361.401 222.042 360.825 223.698C360.249 225.318 359.961 226.938 359.961 228.558C359.961 230.43 360.285 232.068 360.933 233.472C361.581 234.876 362.463 236.082 363.579 237.09C364.731 238.062 366.063 238.872 367.575 239.52C369.087 240.168 370.707 240.654 372.435 240.978C374.163 241.302 375.927 241.5 377.727 241.572L375.513 248.16C373.317 248.052 371.157 247.71 369.033 247.134C366.909 246.594 364.911 245.838 363.039 244.866C361.203 243.858 359.583 242.634 358.179 241.194C356.775 239.754 355.659 238.098 354.831 236.226C354.039 234.354 353.643 232.23 353.643 229.854C353.643 227.19 354.075 224.742 354.939 222.51C355.839 220.278 356.955 218.334 358.287 216.678C359.619 214.986 360.951 213.672 362.283 212.736C361.203 212.88 359.907 213.042 358.395 213.222C356.919 213.366 355.317 213.546 353.589 213.762C351.861 213.942 350.115 214.14 348.351 214.356C346.587 214.572 344.895 214.824 343.275 215.112C341.691 215.364 340.287 215.616 339.063 215.868L338.415 209.226ZM401.811 207.66C401.703 208.236 401.613 208.92 401.541 209.712C401.469 210.468 401.397 211.224 401.325 211.98C401.289 212.736 401.253 213.366 401.217 213.87C401.217 215.022 401.217 216.264 401.217 217.596C401.253 218.892 401.289 220.224 401.325 221.592C401.397 222.96 401.487 224.328 401.595 225.696C401.847 228.396 402.243 230.772 402.783 232.824C403.323 234.876 403.989 236.478 404.781 237.63C405.609 238.782 406.617 239.358 407.805 239.358C408.453 239.358 409.065 239.034 409.641 238.386C410.253 237.702 410.811 236.82 411.315 235.74C411.855 234.624 412.323 233.454 412.719 232.23C413.151 230.97 413.511 229.764 413.799 228.612L418.659 234.39C417.507 237.486 416.337 239.952 415.149 241.788C413.997 243.624 412.809 244.956 411.585 245.784C410.361 246.576 409.065 246.972 407.697 246.972C405.789 246.972 403.989 246.342 402.297 245.082C400.641 243.786 399.201 241.716 397.977 238.872C396.753 235.992 395.889 232.158 395.385 227.37C395.205 225.75 395.061 224.022 394.953 222.186C394.881 220.35 394.827 218.604 394.791 216.948C394.791 215.292 394.791 213.924 394.791 212.844C394.791 212.124 394.755 211.26 394.683 210.252C394.647 209.244 394.539 208.344 394.359 207.552L401.811 207.66ZM429.135 208.956C430.143 210.18 431.115 211.656 432.051 213.384C432.987 215.112 433.833 216.966 434.589 218.946C435.381 220.926 436.065 222.96 436.641 225.048C437.253 227.1 437.739 229.116 438.099 231.096C438.495 233.076 438.765 234.912 438.909 236.604L432.591 239.088C432.375 236.82 432.015 234.408 431.511 231.852C431.043 229.26 430.413 226.686 429.621 224.13C428.829 221.574 427.893 219.162 426.813 216.894C425.733 214.59 424.473 212.61 423.033 210.954L429.135 208.956ZM474.225 202.584C474.189 203.088 474.135 203.664 474.063 204.312C473.991 204.924 473.937 205.59 473.901 206.31C473.901 206.994 473.883 207.93 473.847 209.118C473.811 210.27 473.793 211.548 473.793 212.952C473.793 214.356 473.793 215.76 473.793 217.164C473.793 218.568 473.793 219.846 473.793 220.998C473.793 222.582 473.829 224.328 473.901 226.236C473.973 228.108 474.063 229.998 474.171 231.906C474.315 233.778 474.423 235.524 474.495 237.144C474.567 238.728 474.603 240.042 474.603 241.086C474.603 242.526 474.225 243.858 473.469 245.082C472.749 246.27 471.633 247.224 470.121 247.944C468.609 248.7 466.665 249.078 464.289 249.078C460.113 249.078 456.927 248.322 454.731 246.81C452.571 245.298 451.491 243.156 451.491 240.384C451.491 238.584 452.013 237.018 453.057 235.686C454.101 234.354 455.595 233.31 457.539 232.554C459.519 231.762 461.859 231.366 464.559 231.366C467.475 231.366 470.211 231.69 472.767 232.338C475.323 232.95 477.663 233.76 479.787 234.768C481.911 235.776 483.783 236.838 485.403 237.954C487.059 239.07 488.445 240.078 489.561 240.978L486.051 246.378C484.791 245.19 483.351 244.002 481.731 242.814C480.147 241.626 478.401 240.546 476.493 239.574C474.621 238.602 472.623 237.828 470.499 237.252C468.375 236.64 466.125 236.334 463.749 236.334C461.661 236.334 460.059 236.694 458.943 237.414C457.827 238.134 457.269 238.998 457.269 240.006C457.269 240.726 457.485 241.356 457.917 241.896C458.385 242.436 459.069 242.868 459.969 243.192C460.905 243.48 462.057 243.624 463.425 243.624C464.433 243.624 465.315 243.516 466.071 243.3C466.827 243.048 467.421 242.616 467.853 242.004C468.285 241.392 468.501 240.546 468.501 239.466C468.501 238.602 468.465 237.414 468.393 235.902C468.321 234.354 468.249 232.68 468.177 230.88C468.141 229.044 468.087 227.262 468.015 225.534C467.943 223.77 467.907 222.258 467.907 220.998C467.907 219.738 467.907 218.406 467.907 217.002C467.943 215.598 467.961 214.23 467.961 212.898C467.961 211.53 467.961 210.27 467.961 209.118C467.961 207.93 467.961 206.94 467.961 206.148C467.961 205.644 467.943 205.032 467.907 204.312C467.871 203.592 467.799 203.016 467.691 202.584H474.225ZM452.355 207.822C453.291 207.966 454.353 208.11 455.541 208.254C456.729 208.398 457.953 208.542 459.213 208.686C460.473 208.794 461.661 208.884 462.777 208.956C463.929 208.992 464.937 209.01 465.801 209.01C469.401 209.01 473.001 208.902 476.601 208.686C480.237 208.434 483.963 208.002 487.779 207.39L487.725 212.952C485.853 213.168 483.711 213.384 481.299 213.6C478.923 213.816 476.403 213.996 473.739 214.14C471.111 214.284 468.483 214.356 465.855 214.356C464.703 214.356 463.299 214.302 461.643 214.194C459.987 214.086 458.331 213.96 456.675 213.816C455.019 213.672 453.615 213.528 452.463 213.384L452.355 207.822ZM452.031 219.432C452.931 219.576 453.975 219.72 455.163 219.864C456.351 220.008 457.575 220.116 458.835 220.188C460.095 220.26 461.283 220.332 462.399 220.404C463.515 220.44 464.451 220.458 465.207 220.458C468.339 220.458 471.219 220.404 473.847 220.296C476.511 220.152 479.031 219.972 481.407 219.756C483.819 219.504 486.141 219.234 488.373 218.946L488.319 224.616C486.483 224.868 484.683 225.066 482.919 225.21C481.155 225.354 479.373 225.48 477.573 225.588C475.773 225.696 473.847 225.768 471.795 225.804C469.779 225.84 467.565 225.858 465.153 225.858C464.073 225.858 462.741 225.84 461.157 225.804C459.573 225.732 457.971 225.642 456.351 225.534C454.767 225.426 453.363 225.3 452.139 225.156L452.031 219.432ZM531.249 202.692C531.213 202.944 531.159 203.376 531.087 203.988C531.051 204.564 531.015 205.14 530.979 205.716C530.943 206.292 530.925 206.706 530.925 206.958C530.889 207.678 530.853 208.65 530.817 209.874C530.817 211.062 530.817 212.394 530.817 213.87C530.817 215.31 530.817 216.768 530.817 218.244C530.853 219.72 530.871 221.106 530.871 222.402C530.907 223.698 530.925 224.778 530.925 225.642L524.931 223.428C524.931 222.816 524.931 221.952 524.931 220.836C524.931 219.72 524.913 218.496 524.877 217.164C524.877 215.796 524.859 214.446 524.823 213.114C524.823 211.782 524.805 210.576 524.769 209.496C524.769 208.416 524.751 207.588 524.715 207.012C524.643 206.04 524.553 205.158 524.445 204.366C524.373 203.538 524.301 202.98 524.229 202.692H531.249ZM501.225 209.604C502.809 209.604 504.573 209.586 506.517 209.55C508.497 209.514 510.567 209.478 512.727 209.442C514.923 209.37 517.083 209.316 519.207 209.28C521.367 209.244 523.383 209.226 525.255 209.226C527.163 209.19 528.855 209.172 530.331 209.172C531.771 209.172 533.301 209.172 534.921 209.172C536.541 209.136 538.107 209.118 539.619 209.118C541.167 209.118 542.571 209.136 543.831 209.172C545.091 209.172 546.063 209.172 546.747 209.172L546.693 214.842C545.073 214.77 542.895 214.716 540.159 214.68C537.459 214.608 534.129 214.572 530.169 214.572C527.757 214.572 525.273 214.608 522.717 214.68C520.197 214.716 517.677 214.77 515.157 214.842C512.673 214.914 510.261 215.004 507.921 215.112C505.617 215.22 503.439 215.346 501.387 215.49L501.225 209.604ZM530.223 225.534C530.223 228.306 529.863 230.628 529.143 232.5C528.423 234.336 527.397 235.722 526.065 236.658C524.733 237.594 523.077 238.062 521.097 238.062C520.053 238.062 518.973 237.864 517.857 237.468C516.777 237.036 515.787 236.424 514.887 235.632C513.987 234.804 513.267 233.796 512.727 232.608C512.187 231.384 511.917 229.98 511.917 228.396C511.917 226.416 512.385 224.688 513.321 223.212C514.293 221.736 515.571 220.584 517.155 219.756C518.739 218.928 520.467 218.514 522.339 218.514C524.643 218.514 526.569 219.036 528.117 220.08C529.665 221.088 530.835 222.474 531.627 224.238C532.419 225.966 532.815 227.946 532.815 230.178C532.815 231.942 532.527 233.778 531.951 235.686C531.411 237.594 530.493 239.448 529.197 241.248C527.901 243.012 526.155 244.632 523.959 246.108C521.799 247.584 519.081 248.79 515.805 249.726L510.675 244.596C513.015 244.092 515.157 243.444 517.101 242.652C519.081 241.86 520.791 240.87 522.231 239.682C523.707 238.458 524.841 237 525.633 235.308C526.425 233.616 526.821 231.6 526.821 229.26C526.821 227.316 526.371 225.894 525.471 224.994C524.607 224.058 523.527 223.59 522.231 223.59C521.475 223.59 520.737 223.77 520.017 224.13C519.333 224.49 518.775 225.03 518.343 225.75C517.911 226.434 517.695 227.28 517.695 228.288C517.695 229.656 518.145 230.736 519.045 231.528C519.981 232.32 521.043 232.716 522.231 232.716C523.203 232.716 524.031 232.446 524.715 231.906C525.435 231.33 525.903 230.412 526.119 229.152C526.371 227.856 526.245 226.182 525.741 224.13L530.223 225.534ZM555.462 232.662C557.046 232.662 558.486 233.058 559.782 233.85C561.078 234.606 562.104 235.632 562.86 236.928C563.652 238.224 564.048 239.664 564.048 241.248C564.048 242.832 563.652 244.272 562.86 245.568C562.104 246.864 561.078 247.89 559.782 248.646C558.486 249.438 557.046 249.834 555.462 249.834C553.878 249.834 552.438 249.438 551.142 248.646C549.846 247.89 548.802 246.864 548.01 245.568C547.254 244.272 546.876 242.832 546.876 241.248C546.876 239.664 547.254 238.224 548.01 236.928C548.802 235.632 549.846 234.606 551.142 233.85C552.438 233.058 553.878 232.662 555.462 232.662ZM555.462 246.27C556.866 246.27 558.054 245.784 559.026 244.812C559.998 243.84 560.484 242.652 560.484 241.248C560.484 240.348 560.25 239.52 559.782 238.764C559.35 237.972 558.756 237.36 558 236.928C557.244 236.46 556.398 236.226 555.462 236.226C554.562 236.226 553.716 236.46 552.924 236.928C552.168 237.36 551.556 237.972 551.088 238.764C550.656 239.52 550.44 240.348 550.44 241.248C550.44 242.184 550.656 243.048 551.088 243.84C551.556 244.596 552.168 245.19 552.924 245.622C553.68 246.054 554.526 246.27 555.462 246.27Z" fill="black"/>
<mask id="path-3-inside-1_151_3899" fill="white">
<path d="M120 332H1320V430H120V332Z"/>
</mask>
<path d="M1320 430V429H120V430V431H1320V430Z" fill="#E9EAEB" mask="url(#path-3-inside-1_151_3899)"/>
<rect x="120" y="363" width="36" height="36" rx="18" fill="#F5F5F5"/>
<g clip-path="url(#clip0_151_3899)">
<path d="M139.667 372.891V376.333C139.667 376.8 139.667 377.034 139.758 377.212C139.838 377.369 139.966 377.496 140.122 377.576C140.301 377.667 140.534 377.667 141.001 377.667H144.443M139.667 385.167H134.667M141.334 381.833H134.667M144.667 379.324V385.333C144.667 386.734 144.667 387.434 144.395 387.968C144.155 388.439 143.773 388.821 143.302 389.061C142.768 389.333 142.067 389.333 140.667 389.333H135.334C133.934 389.333 133.234 389.333 132.699 389.061C132.229 388.821 131.846 388.439 131.606 387.968C131.334 387.434 131.334 386.734 131.334 385.333V376.667C131.334 375.267 131.334 374.567 131.606 374.032C131.846 373.561 132.229 373.179 132.699 372.939C133.234 372.667 133.934 372.667 135.334 372.667H138.01C138.622 372.667 138.928 372.667 139.215 372.736C139.47 372.797 139.714 372.898 139.938 373.035C140.19 373.19 140.407 373.406 140.839 373.838L143.496 376.495C143.928 376.928 144.144 377.144 144.299 377.396C144.436 377.62 144.537 377.864 144.598 378.119C144.667 378.406 144.667 378.712 144.667 379.324Z" stroke="#414651" stroke-width="1.67" stroke-linecap="round" stroke-linejoin="round"/>
</g>
<path d="M174.832 383.728H181.216V384.64H174.832V383.728ZM173.344 375.808H182.848V376.736H173.344V375.808ZM173.728 377.76H182.448V378.64H173.728V377.76ZM172.864 379.744H183.328V380.672H172.864V379.744ZM174.848 385.856H181.264V386.768H174.848V385.856ZM174.016 381.6H181.2V382.528H175.136V389.264H174.016V381.6ZM180.928 381.6H182.064V387.936C182.064 388.235 182.021 388.469 181.936 388.64C181.861 388.811 181.712 388.939 181.488 389.024C181.264 389.12 180.965 389.173 180.592 389.184C180.219 389.205 179.749 389.216 179.184 389.216C179.163 389.067 179.115 388.891 179.04 388.688C178.976 388.496 178.907 388.325 178.832 388.176C179.237 388.187 179.611 388.192 179.952 388.192C180.304 388.203 180.533 388.203 180.64 388.192C180.832 388.181 180.928 388.091 180.928 387.92V381.6ZM177.44 374.56H178.624V380.032H177.44V374.56ZM170.432 374.56H171.52V389.264H170.432V374.56ZM169.168 377.648L170.064 377.76C170.043 378.176 170 378.645 169.936 379.168C169.883 379.68 169.808 380.192 169.712 380.704C169.616 381.216 169.504 381.675 169.376 382.08L168.432 381.76C168.56 381.397 168.672 380.976 168.768 380.496C168.864 380.016 168.944 379.525 169.008 379.024C169.083 378.523 169.136 378.064 169.168 377.648ZM171.664 377.216L172.464 376.896C172.645 377.259 172.821 377.659 172.992 378.096C173.163 378.523 173.285 378.88 173.36 379.168L172.512 379.584C172.437 379.275 172.32 378.896 172.16 378.448C172 378 171.835 377.589 171.664 377.216ZM192.896 380.736H198.144V381.728H192.896V380.736ZM192.304 375.296H198.016V376.384H193.408V389.296H192.304V375.296ZM197.44 375.296H198.56V378.384C198.56 378.683 198.517 378.917 198.432 379.088C198.357 379.259 198.197 379.392 197.952 379.488C197.707 379.573 197.376 379.627 196.96 379.648C196.555 379.659 196.037 379.664 195.408 379.664C195.387 379.504 195.339 379.328 195.264 379.136C195.2 378.933 195.125 378.757 195.04 378.608C195.381 378.619 195.691 378.629 195.968 378.64C196.256 378.64 196.501 378.64 196.704 378.64C196.907 378.64 197.045 378.635 197.12 378.624C197.259 378.613 197.344 378.592 197.376 378.56C197.419 378.528 197.44 378.469 197.44 378.384V375.296ZM194.464 381.392C194.752 382.395 195.141 383.349 195.632 384.256C196.123 385.152 196.693 385.952 197.344 386.656C198.005 387.36 198.741 387.909 199.552 388.304C199.413 388.411 199.264 388.56 199.104 388.752C198.944 388.955 198.816 389.131 198.72 389.28C197.899 388.811 197.152 388.192 196.48 387.424C195.819 386.656 195.237 385.776 194.736 384.784C194.245 383.792 193.84 382.747 193.52 381.648L194.464 381.392ZM197.776 380.736H197.984L198.192 380.688L198.944 380.96C198.731 382.112 198.411 383.216 197.984 384.272C197.568 385.328 197.04 386.288 196.4 387.152C195.771 388.005 195.029 388.725 194.176 389.312C194.08 389.173 193.952 389.024 193.792 388.864C193.643 388.715 193.499 388.592 193.36 388.496C194.171 387.963 194.875 387.301 195.472 386.512C196.069 385.712 196.56 384.837 196.944 383.888C197.339 382.939 197.616 381.979 197.776 381.008V380.736ZM185.232 376.208H191.168V377.232H185.232V376.208ZM185.056 384.944H191.376V385.984H185.056V384.944ZM184.672 378.848H191.792V379.888H184.672V378.848ZM184.896 382.16H191.584V383.2H184.896V382.16ZM187.696 374.576H188.816V379.216H187.696V374.576ZM187.696 382.608H188.816V389.248H187.696V382.608ZM189.856 379.824L190.896 380.08C190.736 380.464 190.576 380.853 190.416 381.248C190.267 381.632 190.112 381.963 189.952 382.24L189.072 381.984C189.157 381.781 189.248 381.552 189.344 381.296C189.451 381.04 189.547 380.784 189.632 380.528C189.728 380.261 189.803 380.027 189.856 379.824ZM185.776 380.08L186.688 379.84C186.88 380.181 187.045 380.555 187.184 380.96C187.323 381.365 187.408 381.707 187.44 381.984L186.48 382.272C186.448 381.984 186.363 381.637 186.224 381.232C186.096 380.816 185.947 380.432 185.776 380.08ZM204.896 385.936C204.896 385.701 204.896 385.36 204.896 384.912C204.896 384.453 204.896 383.941 204.896 383.376C204.896 382.811 204.896 382.224 204.896 381.616C204.896 381.008 204.896 380.416 204.896 379.84C204.896 379.253 204.896 378.725 204.896 378.256C204.896 377.776 204.896 377.392 204.896 377.104C204.896 376.944 204.891 376.784 204.88 376.624C204.88 376.453 204.869 376.288 204.848 376.128C204.837 375.957 204.816 375.792 204.784 375.632H206.304C206.261 375.867 206.229 376.112 206.208 376.368C206.197 376.624 206.192 376.869 206.192 377.104C206.192 377.381 206.192 377.749 206.192 378.208C206.192 378.656 206.192 379.157 206.192 379.712C206.192 380.256 206.192 380.816 206.192 381.392C206.192 381.968 206.192 382.528 206.192 383.072C206.192 383.616 206.192 384.107 206.192 384.544C206.192 384.981 206.192 385.333 206.192 385.6C206.192 385.963 206.251 386.251 206.368 386.464C206.496 386.677 206.725 386.832 207.056 386.928C207.387 387.013 207.872 387.056 208.512 387.056C209.131 387.056 209.717 387.04 210.272 387.008C210.827 386.976 211.371 386.923 211.904 386.848C212.437 386.773 212.971 386.688 213.504 386.592L213.44 387.968C212.971 388.032 212.475 388.091 211.952 388.144C211.429 388.197 210.875 388.235 210.288 388.256C209.712 388.277 209.088 388.288 208.416 388.288C207.68 388.288 207.077 388.24 206.608 388.144C206.139 388.048 205.781 387.904 205.536 387.712C205.291 387.509 205.12 387.264 205.024 386.976C204.939 386.677 204.896 386.331 204.896 385.936ZM214.176 378.8C214.123 378.875 214.059 378.976 213.984 379.104C213.909 379.221 213.845 379.333 213.792 379.44C213.6 379.771 213.381 380.139 213.136 380.544C212.901 380.939 212.64 381.349 212.352 381.776C212.064 382.192 211.76 382.603 211.44 383.008C211.131 383.403 210.821 383.765 210.512 384.096L209.392 383.424C209.797 383.061 210.187 382.645 210.56 382.176C210.933 381.696 211.264 381.232 211.552 380.784C211.851 380.325 212.08 379.936 212.24 379.616C212.176 379.627 211.957 379.675 211.584 379.76C211.221 379.835 210.757 379.931 210.192 380.048C209.627 380.155 208.997 380.277 208.304 380.416C207.611 380.555 206.907 380.699 206.192 380.848C205.477 380.987 204.789 381.125 204.128 381.264C203.477 381.392 202.896 381.509 202.384 381.616C201.872 381.723 201.477 381.803 201.2 381.856L200.96 380.528C201.248 380.485 201.648 380.427 202.16 380.352C202.672 380.267 203.248 380.165 203.888 380.048C204.539 379.92 205.216 379.787 205.92 379.648C206.635 379.509 207.333 379.376 208.016 379.248C208.709 379.109 209.355 378.981 209.952 378.864C210.549 378.736 211.061 378.629 211.488 378.544C211.915 378.448 212.213 378.384 212.384 378.352C212.555 378.309 212.715 378.267 212.864 378.224C213.024 378.171 213.147 378.117 213.232 378.064L214.176 378.8ZM222.272 376.688C222.229 376.485 222.181 376.293 222.128 376.112C222.085 375.931 222.032 375.76 221.968 375.6L223.408 375.344C223.419 375.493 223.44 375.675 223.472 375.888C223.504 376.091 223.531 376.277 223.552 376.448C223.573 376.555 223.621 376.805 223.696 377.2C223.771 377.584 223.861 378.069 223.968 378.656C224.085 379.243 224.213 379.877 224.352 380.56C224.491 381.243 224.629 381.931 224.768 382.624C224.907 383.317 225.035 383.968 225.152 384.576C225.269 385.184 225.371 385.701 225.456 386.128C225.552 386.555 225.616 386.843 225.648 386.992C225.701 387.227 225.76 387.472 225.824 387.728C225.888 387.984 225.957 388.224 226.032 388.448L224.576 388.72C224.533 388.453 224.496 388.197 224.464 387.952C224.432 387.696 224.389 387.451 224.336 387.216C224.315 387.077 224.261 386.8 224.176 386.384C224.101 385.957 224.005 385.445 223.888 384.848C223.771 384.251 223.643 383.611 223.504 382.928C223.365 382.235 223.227 381.547 223.088 380.864C222.96 380.181 222.837 379.547 222.72 378.96C222.603 378.373 222.501 377.877 222.416 377.472C222.341 377.067 222.293 376.805 222.272 376.688ZM217.76 378.992C217.952 378.981 218.155 378.971 218.368 378.96C218.592 378.939 218.832 378.912 219.088 378.88C219.333 378.848 219.675 378.805 220.112 378.752C220.549 378.688 221.04 378.619 221.584 378.544C222.139 378.459 222.709 378.368 223.296 378.272C223.893 378.176 224.469 378.085 225.024 378C225.579 377.904 226.08 377.819 226.528 377.744C226.976 377.669 227.328 377.605 227.584 377.552C227.819 377.509 228.032 377.467 228.224 377.424C228.427 377.371 228.592 377.323 228.72 377.28L228.992 378.64C228.875 378.651 228.704 378.672 228.48 378.704C228.267 378.725 228.053 378.752 227.84 378.784C227.563 378.827 227.195 378.885 226.736 378.96C226.277 379.035 225.765 379.12 225.2 379.216C224.645 379.301 224.075 379.392 223.488 379.488C222.901 379.573 222.331 379.664 221.776 379.76C221.232 379.845 220.747 379.925 220.32 380C219.893 380.064 219.563 380.117 219.328 380.16C219.104 380.192 218.891 380.229 218.688 380.272C218.496 380.315 218.277 380.368 218.032 380.432L217.76 378.992ZM217.712 383.616C217.904 383.605 218.133 383.589 218.4 383.568C218.667 383.536 218.907 383.504 219.12 383.472C219.408 383.44 219.792 383.387 220.272 383.312C220.763 383.237 221.312 383.152 221.92 383.056C222.539 382.949 223.173 382.843 223.824 382.736C224.485 382.629 225.125 382.523 225.744 382.416C226.363 382.309 226.928 382.213 227.44 382.128C227.963 382.032 228.379 381.957 228.688 381.904C228.997 381.851 229.269 381.797 229.504 381.744C229.739 381.691 229.941 381.643 230.112 381.6L230.368 382.944C230.208 382.955 230 382.981 229.744 383.024C229.499 383.056 229.227 383.099 228.928 383.152C228.576 383.205 228.133 383.275 227.6 383.36C227.077 383.445 226.507 383.541 225.888 383.648C225.269 383.744 224.635 383.845 223.984 383.952C223.344 384.048 222.725 384.149 222.128 384.256C221.531 384.352 220.997 384.443 220.528 384.528C220.059 384.603 219.685 384.667 219.408 384.72C219.099 384.773 218.827 384.821 218.592 384.864C218.368 384.907 218.171 384.955 218 385.008L217.712 383.616ZM243.792 380.384C243.771 380.459 243.749 380.544 243.728 380.64C243.707 380.736 243.691 380.816 243.68 380.88C243.659 381.125 243.616 381.456 243.552 381.872C243.499 382.288 243.435 382.747 243.36 383.248C243.285 383.749 243.211 384.251 243.136 384.752C243.061 385.243 242.992 385.696 242.928 386.112C242.875 386.517 242.827 386.832 242.784 387.056H241.424C241.467 386.875 241.515 386.597 241.568 386.224C241.632 385.84 241.701 385.408 241.776 384.928C241.861 384.448 241.936 383.968 242 383.488C242.064 382.997 242.117 382.555 242.16 382.16C242.213 381.755 242.245 381.445 242.256 381.232C242.053 381.232 241.765 381.232 241.392 381.232C241.019 381.232 240.608 381.232 240.16 381.232C239.723 381.232 239.291 381.232 238.864 381.232C238.437 381.232 238.069 381.232 237.76 381.232C237.461 381.232 237.264 381.232 237.168 381.232C236.933 381.232 236.709 381.237 236.496 381.248C236.293 381.259 236.091 381.269 235.888 381.28V379.936C236.016 379.957 236.149 379.973 236.288 379.984C236.437 379.995 236.587 380.005 236.736 380.016C236.885 380.027 237.024 380.032 237.152 380.032C237.28 380.032 237.499 380.032 237.808 380.032C238.117 380.032 238.469 380.032 238.864 380.032C239.269 380.032 239.68 380.032 240.096 380.032C240.512 380.032 240.891 380.032 241.232 380.032C241.584 380.032 241.845 380.032 242.016 380.032C242.112 380.032 242.208 380.027 242.304 380.016C242.411 380.005 242.512 379.995 242.608 379.984C242.704 379.963 242.773 379.941 242.816 379.92L243.792 380.384ZM234.384 386.544C234.576 386.555 234.784 386.571 235.008 386.592C235.232 386.603 235.467 386.608 235.712 386.608C235.851 386.608 236.139 386.608 236.576 386.608C237.024 386.608 237.552 386.608 238.16 386.608C238.768 386.608 239.403 386.608 240.064 386.608C240.736 386.608 241.376 386.608 241.984 386.608C242.603 386.608 243.131 386.608 243.568 386.608C244.005 386.608 244.293 386.608 244.432 386.608C244.603 386.608 244.811 386.603 245.056 386.592C245.312 386.581 245.525 386.571 245.696 386.56V387.856C245.6 387.845 245.477 387.84 245.328 387.84C245.179 387.84 245.029 387.84 244.88 387.84C244.731 387.829 244.597 387.824 244.48 387.824C244.331 387.824 244.032 387.824 243.584 387.824C243.136 387.824 242.603 387.824 241.984 387.824C241.365 387.824 240.72 387.824 240.048 387.824C239.376 387.824 238.736 387.824 238.128 387.824C237.52 387.824 236.997 387.824 236.56 387.824C236.123 387.824 235.84 387.824 235.712 387.824C235.467 387.824 235.243 387.829 235.04 387.84C234.837 387.84 234.619 387.851 234.384 387.872V386.544ZM260.416 375.856C260.405 376.059 260.395 376.277 260.384 376.512C260.373 376.736 260.368 376.981 260.368 377.248C260.368 377.461 260.368 377.733 260.368 378.064C260.368 378.395 260.368 378.725 260.368 379.056C260.368 379.376 260.368 379.637 260.368 379.84C260.368 380.8 260.331 381.616 260.256 382.288C260.192 382.96 260.091 383.536 259.952 384.016C259.824 384.485 259.653 384.901 259.44 385.264C259.227 385.627 258.976 385.979 258.688 386.32C258.347 386.725 257.952 387.083 257.504 387.392C257.067 387.691 256.619 387.941 256.16 388.144C255.701 388.357 255.275 388.528 254.88 388.656L253.84 387.552C254.576 387.371 255.269 387.115 255.92 386.784C256.581 386.443 257.163 385.989 257.664 385.424C257.952 385.093 258.181 384.757 258.352 384.416C258.533 384.064 258.667 383.675 258.752 383.248C258.848 382.821 258.912 382.325 258.944 381.76C258.976 381.195 258.992 380.533 258.992 379.776C258.992 379.563 258.992 379.296 258.992 378.976C258.992 378.656 258.992 378.336 258.992 378.016C258.992 377.685 258.992 377.429 258.992 377.248C258.992 376.981 258.981 376.736 258.96 376.512C258.949 376.277 258.933 376.059 258.912 375.856H260.416ZM252.992 375.984C252.981 376.133 252.965 376.315 252.944 376.528C252.933 376.741 252.928 376.944 252.928 377.136C252.928 377.211 252.928 377.381 252.928 377.648C252.928 377.904 252.928 378.213 252.928 378.576C252.928 378.939 252.928 379.323 252.928 379.728C252.928 380.133 252.928 380.528 252.928 380.912C252.928 381.285 252.928 381.611 252.928 381.888C252.928 382.165 252.928 382.363 252.928 382.48C252.928 382.683 252.933 382.901 252.944 383.136C252.965 383.36 252.981 383.547 252.992 383.696H251.52C251.541 383.568 251.557 383.392 251.568 383.168C251.589 382.933 251.6 382.699 251.6 382.464C251.6 382.357 251.6 382.165 251.6 381.888C251.6 381.6 251.6 381.269 251.6 380.896C251.6 380.523 251.6 380.133 251.6 379.728C251.6 379.323 251.6 378.939 251.6 378.576C251.6 378.213 251.6 377.904 251.6 377.648C251.6 377.381 251.6 377.211 251.6 377.136C251.6 376.997 251.595 376.811 251.584 376.576C251.573 376.331 251.557 376.133 251.536 375.984H252.992ZM267.44 376.16C267.664 376.181 267.893 376.203 268.128 376.224C268.373 376.245 268.624 376.256 268.88 376.256C269.072 376.256 269.381 376.256 269.808 376.256C270.245 376.256 270.741 376.256 271.296 376.256C271.851 376.256 272.405 376.256 272.96 376.256C273.515 376.256 274.005 376.256 274.432 376.256C274.869 376.256 275.179 376.256 275.36 376.256C275.584 376.256 275.829 376.251 276.096 376.24C276.373 376.219 276.624 376.192 276.848 376.16V377.488C276.613 377.467 276.363 377.456 276.096 377.456C275.84 377.445 275.595 377.44 275.36 377.44C275.179 377.44 274.875 377.44 274.448 377.44C274.021 377.44 273.531 377.44 272.976 377.44C272.421 377.44 271.867 377.44 271.312 377.44C270.757 377.44 270.261 377.44 269.824 377.44C269.387 377.44 269.077 377.44 268.896 377.44C268.64 377.44 268.384 377.445 268.128 377.456C267.872 377.456 267.643 377.467 267.44 377.488V376.16ZM265.52 380.176C265.744 380.197 265.968 380.219 266.192 380.24C266.427 380.251 266.667 380.256 266.912 380.256C267.051 380.256 267.323 380.256 267.728 380.256C268.144 380.256 268.645 380.256 269.232 380.256C269.829 380.256 270.469 380.256 271.152 380.256C271.835 380.256 272.517 380.256 273.2 380.256C273.883 380.256 274.517 380.256 275.104 380.256C275.691 380.256 276.187 380.256 276.592 380.256C277.008 380.256 277.275 380.256 277.392 380.256C277.563 380.256 277.765 380.251 278 380.24C278.235 380.229 278.448 380.208 278.64 380.176V381.504C278.469 381.493 278.267 381.488 278.032 381.488C277.808 381.477 277.595 381.472 277.392 381.472C277.275 381.472 277.008 381.472 276.592 381.472C276.187 381.472 275.691 381.472 275.104 381.472C274.517 381.472 273.883 381.472 273.2 381.472C272.517 381.472 271.835 381.472 271.152 381.472C270.469 381.472 269.829 381.472 269.232 381.472C268.645 381.472 268.144 381.472 267.728 381.472C267.323 381.472 267.051 381.472 266.912 381.472C266.677 381.472 266.443 381.472 266.208 381.472C265.973 381.472 265.744 381.483 265.52 381.504V380.176ZM273.056 380.832C273.056 381.835 272.981 382.757 272.832 383.6C272.693 384.432 272.448 385.179 272.096 385.84C271.904 386.203 271.643 386.565 271.312 386.928C270.992 387.28 270.629 387.616 270.224 387.936C269.829 388.256 269.403 388.533 268.944 388.768L267.76 387.888C268.379 387.632 268.96 387.285 269.504 386.848C270.048 386.411 270.475 385.941 270.784 385.44C271.189 384.8 271.445 384.096 271.552 383.328C271.659 382.549 271.712 381.717 271.712 380.832H273.056ZM280.999 383.872C281.703 383.701 282.412 383.477 283.127 383.2C283.852 382.923 284.53 382.629 285.159 382.32C285.799 382.011 286.332 381.723 286.759 381.456C287.271 381.147 287.762 380.805 288.231 380.432C288.711 380.048 289.154 379.664 289.559 379.28C289.964 378.896 290.3 378.533 290.567 378.192L291.559 379.152C291.26 379.483 290.882 379.851 290.423 380.256C289.975 380.651 289.484 381.045 288.951 381.44C288.418 381.835 287.868 382.203 287.303 382.544C286.972 382.747 286.588 382.96 286.151 383.184C285.714 383.408 285.25 383.632 284.759 383.856C284.268 384.08 283.751 384.299 283.207 384.512C282.674 384.715 282.14 384.896 281.607 385.056L280.999 383.872ZM286.615 382.176L287.943 381.856V387.84C287.943 388 287.943 388.171 287.943 388.352C287.954 388.544 287.964 388.72 287.975 388.88C287.986 389.04 288.002 389.163 288.023 389.248H286.551C286.562 389.163 286.572 389.04 286.583 388.88C286.594 388.72 286.599 388.544 286.599 388.352C286.61 388.171 286.615 388 286.615 387.84V382.176ZM296.519 376.112H309.623V377.12H296.519V376.112ZM297.031 387.824H309.159V388.848H297.031V387.824ZM299.671 378.192H306.407V379.088H299.671V378.192ZM299.671 380.208H306.407V381.12H299.671V380.208ZM295.783 382.256H310.327V383.28H295.783V382.256ZM299.127 385.136H306.983V386.128H299.127V385.136ZM298.967 374.56H300.167V382.832H298.967V374.56ZM305.991 374.576H307.207V382.832H305.991V374.576ZM302.407 383.792H303.623V388.384H302.407V383.792ZM299.815 382.544L300.807 382.912C300.487 383.467 300.087 383.995 299.607 384.496C299.138 384.997 298.626 385.456 298.071 385.872C297.527 386.277 296.972 386.613 296.407 386.88C296.354 386.784 296.279 386.683 296.183 386.576C296.087 386.459 295.991 386.347 295.895 386.24C295.799 386.123 295.708 386.027 295.623 385.952C296.156 385.739 296.69 385.456 297.223 385.104C297.756 384.752 298.247 384.352 298.695 383.904C299.143 383.456 299.516 383.003 299.815 382.544ZM306.359 382.544C306.636 382.992 306.994 383.424 307.431 383.84C307.868 384.256 308.354 384.629 308.887 384.96C309.431 385.28 309.975 385.541 310.519 385.744C310.444 385.819 310.354 385.915 310.247 386.032C310.14 386.139 310.044 386.251 309.959 386.368C309.874 386.485 309.794 386.592 309.719 386.688C309.164 386.443 308.61 386.123 308.055 385.728C307.511 385.333 307.01 384.896 306.551 384.416C306.103 383.925 305.719 383.419 305.399 382.896L306.359 382.544ZM312.087 377.936H326.039V379.152H312.087V377.936ZM315.271 385.072H322.727V386.288H315.271V385.072ZM318.407 374.576H319.671V389.28H318.407V374.576ZM318.023 378.336L319.111 378.688C318.631 379.819 318.044 380.901 317.351 381.936C316.658 382.96 315.89 383.888 315.047 384.72C314.204 385.541 313.324 386.219 312.407 386.752C312.343 386.656 312.258 386.549 312.151 386.432C312.044 386.304 311.938 386.181 311.831 386.064C311.735 385.947 311.639 385.845 311.543 385.76C312.215 385.408 312.866 384.971 313.495 384.448C314.135 383.925 314.738 383.339 315.303 382.688C315.879 382.027 316.396 381.328 316.855 380.592C317.314 379.856 317.703 379.104 318.023 378.336ZM320.055 378.384C320.482 379.397 321.031 380.379 321.703 381.328C322.375 382.267 323.127 383.115 323.959 383.872C324.802 384.619 325.682 385.216 326.599 385.664C326.503 385.749 326.396 385.851 326.279 385.968C326.172 386.085 326.066 386.213 325.959 386.352C325.852 386.48 325.762 386.603 325.687 386.72C324.759 386.197 323.868 385.531 323.015 384.72C322.172 383.899 321.41 382.976 320.727 381.952C320.044 380.928 319.468 379.861 318.999 378.752L320.055 378.384ZM327.895 377.328H342.215V378.48H327.895V377.328ZM333.127 381.104H339.511V382.256H333.127V381.104ZM339.079 381.104H340.327C340.327 381.104 340.322 381.141 340.311 381.216C340.311 381.291 340.306 381.376 340.295 381.472C340.295 381.557 340.29 381.632 340.279 381.696C340.172 383.221 340.06 384.464 339.943 385.424C339.826 386.373 339.692 387.104 339.543 387.616C339.394 388.128 339.212 388.491 338.999 388.704C338.818 388.896 338.62 389.029 338.407 389.104C338.194 389.179 337.932 389.227 337.623 389.248C337.346 389.269 336.962 389.275 336.471 389.264C335.98 389.253 335.468 389.232 334.935 389.2C334.924 389.029 334.876 388.832 334.791 388.608C334.716 388.395 334.62 388.203 334.503 388.032C335.079 388.075 335.623 388.101 336.135 388.112C336.647 388.133 337.004 388.144 337.207 388.144C337.388 388.144 337.538 388.133 337.655 388.112C337.783 388.091 337.89 388.037 337.975 387.952C338.146 387.803 338.295 387.488 338.423 387.008C338.551 386.517 338.668 385.813 338.775 384.896C338.882 383.968 338.983 382.773 339.079 381.312V381.104ZM332.839 377.968H334.183C334.14 378.821 334.071 379.685 333.975 380.56C333.879 381.424 333.724 382.283 333.511 383.136C333.308 383.979 333.004 384.784 332.599 385.552C332.204 386.32 331.682 387.024 331.031 387.664C330.38 388.304 329.57 388.864 328.599 389.344C328.503 389.184 328.37 389.008 328.199 388.816C328.039 388.635 327.879 388.485 327.719 388.368C328.658 387.941 329.431 387.435 330.039 386.848C330.647 386.251 331.132 385.6 331.495 384.896C331.858 384.181 332.13 383.435 332.311 382.656C332.492 381.877 332.615 381.093 332.679 380.304C332.754 379.504 332.807 378.725 332.839 377.968ZM334.375 374.512H335.607V377.824H334.375V374.512ZM350.647 379.92H358.455V381.104H350.647V379.92ZM353.991 374.704H355.207V389.264H353.991V374.704ZM344.935 378.592H349.911V379.632H344.935V378.592ZM344.023 381.328H350.711V382.4H344.023V381.328ZM344.407 383.504L345.303 383.28C345.463 383.749 345.607 384.261 345.735 384.816C345.874 385.36 345.964 385.835 346.007 386.24L345.063 386.496C345.031 386.08 344.951 385.6 344.823 385.056C344.706 384.501 344.567 383.984 344.407 383.504ZM343.783 387.728C344.348 387.621 345.01 387.509 345.767 387.392C346.524 387.264 347.324 387.125 348.167 386.976C349.02 386.816 349.874 386.656 350.727 386.496L350.775 387.584C349.996 387.733 349.202 387.883 348.391 388.032C347.591 388.192 346.818 388.341 346.071 388.48C345.335 388.619 344.668 388.741 344.071 388.848L343.783 387.728ZM349.415 383.136L350.423 383.408C350.274 383.888 350.108 384.389 349.927 384.912C349.756 385.435 349.596 385.883 349.447 386.256L348.583 386.016C348.679 385.749 348.78 385.445 348.887 385.104C348.994 384.763 349.095 384.421 349.191 384.08C349.287 383.728 349.362 383.413 349.415 383.136ZM346.839 379.024H347.959V387.44L346.839 387.648V379.024ZM346.759 374.56H347.415V374.832H347.783V375.152C347.548 375.589 347.26 376.064 346.919 376.576C346.588 377.088 346.194 377.611 345.735 378.144C345.287 378.677 344.77 379.184 344.183 379.664C344.13 379.579 344.055 379.488 343.959 379.392C343.874 379.285 343.778 379.184 343.671 379.088C343.575 378.992 343.484 378.917 343.399 378.864C343.932 378.448 344.412 377.995 344.839 377.504C345.276 377.003 345.655 376.501 345.975 376C346.295 375.488 346.556 375.008 346.759 374.56ZM346.983 374.56H347.895C348.268 374.859 348.658 375.2 349.063 375.584C349.468 375.957 349.847 376.331 350.199 376.704C350.551 377.067 350.839 377.397 351.063 377.696L350.215 378.624C350.012 378.325 349.746 377.984 349.415 377.6C349.084 377.216 348.727 376.832 348.343 376.448C347.959 376.064 347.58 375.728 347.207 375.44H346.983V374.56Z" fill="black"/>
<rect x="1270.5" y="356.5" width="49" height="49" rx="24.5" stroke="#D5D7DA"/>
<path d="M1292 387L1298 381L1292 375" stroke="#414651" stroke-width="2" stroke-linecap="round" stroke-linejoin="round"/>
<mask id="path-10-inside-2_151_3899" fill="white">
<path d="M120 430H1320V528H120V430Z"/>
</mask>
<path d="M1320 528V527H120V528V529H1320V528Z" fill="#E9EAEB" mask="url(#path-10-inside-2_151_3899)"/>
<rect x="120" y="461" width="36" height="36" rx="18" fill="#F5F5F5"/>
<g clip-path="url(#clip1_151_3899)">
<path d="M139.667 470.891V474.333C139.667 474.8 139.667 475.034 139.758 475.212C139.838 475.369 139.966 475.496 140.122 475.576C140.301 475.667 140.534 475.667 141.001 475.667H144.443M139.667 483.167H134.667M141.334 479.833H134.667M144.667 477.324V483.333C144.667 484.734 144.667 485.434 144.395 485.968C144.155 486.439 143.773 486.821 143.302 487.061C142.768 487.333 142.067 487.333 140.667 487.333H135.334C133.934 487.333 133.234 487.333 132.699 487.061C132.229 486.821 131.846 486.439 131.606 485.968C131.334 485.434 131.334 484.734 131.334 483.333V474.667C131.334 473.267 131.334 472.567 131.606 472.032C131.846 471.561 132.229 471.179 132.699 470.939C133.234 470.667 133.934 470.667 135.334 470.667H138.01C138.622 470.667 138.928 470.667 139.215 470.736C139.47 470.797 139.714 470.898 139.938 471.035C140.19 471.19 140.407 471.406 140.839 471.838L143.496 474.495C143.928 474.928 144.144 475.144 144.299 475.396C144.436 475.62 144.537 475.864 144.598 476.119C144.667 476.406 144.667 476.712 144.667 477.324Z" stroke="#414651" stroke-width="1.67" stroke-linecap="round" stroke-linejoin="round"/>
</g>
<path d="M180.88 474.512C180.88 474.8 180.981 475.051 181.184 475.264C181.397 475.467 181.648 475.568 181.936 475.568C182.235 475.568 182.485 475.467 182.688 475.264C182.901 475.051 183.008 474.8 183.008 474.512C183.008 474.213 182.901 473.963 182.688 473.76C182.485 473.547 182.235 473.44 181.936 473.44C181.648 473.44 181.397 473.547 181.184 473.76C180.981 473.963 180.88 474.213 180.88 474.512ZM180.144 474.512C180.144 474.181 180.224 473.883 180.384 473.616C180.555 473.339 180.773 473.12 181.04 472.96C181.307 472.789 181.605 472.704 181.936 472.704C182.267 472.704 182.565 472.789 182.832 472.96C183.109 473.12 183.328 473.339 183.488 473.616C183.659 473.883 183.744 474.181 183.744 474.512C183.744 474.843 183.659 475.141 183.488 475.408C183.328 475.675 183.109 475.893 182.832 476.064C182.565 476.224 182.267 476.304 181.936 476.304C181.605 476.304 181.307 476.224 181.04 476.064C180.773 475.893 180.555 475.675 180.384 475.408C180.224 475.141 180.144 474.843 180.144 474.512ZM181.536 475.584C181.483 475.691 181.435 475.813 181.392 475.952C181.36 476.08 181.328 476.224 181.296 476.384C181.211 476.8 181.099 477.264 180.96 477.776C180.821 478.288 180.651 478.816 180.448 479.36C180.256 479.893 180.032 480.411 179.776 480.912C179.52 481.413 179.232 481.872 178.912 482.288C178.421 482.907 177.877 483.483 177.28 484.016C176.683 484.549 176 485.029 175.232 485.456C174.464 485.883 173.589 486.251 172.608 486.56L171.52 485.36C172.565 485.104 173.467 484.784 174.224 484.4C174.992 484.016 175.664 483.584 176.24 483.104C176.816 482.613 177.323 482.085 177.76 481.52C178.144 481.029 178.475 480.48 178.752 479.872C179.04 479.253 179.28 478.635 179.472 478.016C179.664 477.387 179.792 476.816 179.856 476.304C179.707 476.304 179.424 476.304 179.008 476.304C178.592 476.304 178.101 476.304 177.536 476.304C176.971 476.304 176.379 476.304 175.76 476.304C175.152 476.304 174.565 476.304 174 476.304C173.435 476.304 172.944 476.304 172.528 476.304C172.112 476.304 171.829 476.304 171.68 476.304C171.36 476.304 171.067 476.309 170.8 476.32C170.533 476.331 170.293 476.341 170.08 476.352V474.928C170.229 474.949 170.395 474.971 170.576 474.992C170.757 475.003 170.944 475.013 171.136 475.024C171.328 475.035 171.509 475.04 171.68 475.04C171.808 475.04 172.037 475.04 172.368 475.04C172.699 475.04 173.088 475.04 173.536 475.04C173.995 475.04 174.48 475.04 174.992 475.04C175.515 475.04 176.027 475.04 176.528 475.04C177.04 475.04 177.515 475.04 177.952 475.04C178.4 475.04 178.779 475.04 179.088 475.04C179.397 475.04 179.605 475.04 179.712 475.04C179.829 475.04 179.963 475.035 180.112 475.024C180.261 475.013 180.411 474.992 180.56 474.96L181.536 475.584ZM187.696 474.08C187.909 474.112 188.139 474.133 188.384 474.144C188.629 474.155 188.88 474.16 189.136 474.16C189.296 474.16 189.584 474.16 190 474.16C190.427 474.16 190.907 474.16 191.44 474.16C191.984 474.16 192.523 474.16 193.056 474.16C193.6 474.16 194.085 474.16 194.512 474.16C194.939 474.16 195.243 474.16 195.424 474.16C195.68 474.16 195.936 474.155 196.192 474.144C196.448 474.133 196.677 474.112 196.88 474.08V475.408C196.688 475.387 196.459 475.376 196.192 475.376C195.936 475.365 195.675 475.36 195.408 475.36C195.227 475.36 194.923 475.36 194.496 475.36C194.08 475.36 193.605 475.36 193.072 475.36C192.539 475.36 192 475.36 191.456 475.36C190.923 475.36 190.443 475.36 190.016 475.36C189.6 475.36 189.307 475.36 189.136 475.36C188.891 475.36 188.645 475.365 188.4 475.376C188.155 475.387 187.92 475.397 187.696 475.408V474.08ZM198.048 478.304C198.016 478.368 197.973 478.448 197.92 478.544C197.877 478.629 197.851 478.704 197.84 478.768C197.627 479.557 197.333 480.352 196.96 481.152C196.587 481.941 196.101 482.661 195.504 483.312C194.661 484.229 193.749 484.944 192.768 485.456C191.797 485.968 190.8 486.368 189.776 486.656L188.784 485.52C189.915 485.285 190.965 484.917 191.936 484.416C192.907 483.915 193.733 483.307 194.416 482.592C194.907 482.08 195.307 481.509 195.616 480.88C195.936 480.24 196.171 479.632 196.32 479.056C196.203 479.056 195.979 479.056 195.648 479.056C195.328 479.056 194.933 479.056 194.464 479.056C193.995 479.056 193.488 479.056 192.944 479.056C192.411 479.056 191.867 479.056 191.312 479.056C190.768 479.056 190.256 479.056 189.776 479.056C189.307 479.056 188.896 479.056 188.544 479.056C188.203 479.056 187.963 479.056 187.824 479.056C187.632 479.056 187.397 479.061 187.12 479.072C186.843 479.072 186.555 479.083 186.256 479.104V477.76C186.555 477.792 186.837 477.819 187.104 477.84C187.371 477.851 187.611 477.856 187.824 477.856C187.941 477.856 188.165 477.856 188.496 477.856C188.827 477.856 189.227 477.856 189.696 477.856C190.165 477.856 190.672 477.856 191.216 477.856C191.76 477.856 192.304 477.856 192.848 477.856C193.392 477.856 193.899 477.856 194.368 477.856C194.837 477.856 195.237 477.856 195.568 477.856C195.909 477.856 196.139 477.856 196.256 477.856C196.437 477.856 196.608 477.845 196.768 477.824C196.928 477.803 197.051 477.771 197.136 477.728L198.048 478.304ZM201.376 480.224C202.763 479.851 204.053 479.397 205.248 478.864C206.443 478.331 207.483 477.787 208.368 477.232C208.923 476.88 209.461 476.501 209.984 476.096C210.517 475.68 211.019 475.248 211.488 474.8C211.957 474.352 212.373 473.909 212.736 473.472L213.808 474.464C213.36 474.944 212.875 475.413 212.352 475.872C211.829 476.331 211.275 476.773 210.688 477.2C210.112 477.616 209.509 478.021 208.88 478.416C208.293 478.768 207.632 479.131 206.896 479.504C206.16 479.877 205.376 480.229 204.544 480.56C203.712 480.891 202.869 481.195 202.016 481.472L201.376 480.224ZM208.112 477.904L209.488 477.488V484.784C209.488 484.987 209.488 485.2 209.488 485.424C209.499 485.648 209.509 485.856 209.52 486.048C209.541 486.24 209.563 486.389 209.584 486.496H208.016C208.027 486.389 208.037 486.24 208.048 486.048C208.069 485.856 208.085 485.648 208.096 485.424C208.107 485.2 208.112 484.987 208.112 484.784V477.904ZM227.928 473.536C228.066 473.717 228.216 473.941 228.376 474.208C228.536 474.464 228.69 474.725 228.84 474.992C229 475.259 229.133 475.504 229.24 475.728L228.376 476.112C228.216 475.781 228.013 475.408 227.768 474.992C227.522 474.565 227.293 474.197 227.08 473.888L227.928 473.536ZM229.688 472.896C229.837 473.088 229.992 473.317 230.152 473.584C230.322 473.851 230.488 474.117 230.648 474.384C230.808 474.64 230.936 474.869 231.032 475.072L230.168 475.456C229.997 475.104 229.789 474.725 229.544 474.32C229.309 473.904 229.074 473.547 228.84 473.248L229.688 472.896ZM219.176 481.184C219.346 480.768 219.512 480.315 219.672 479.824C219.842 479.333 219.997 478.827 220.136 478.304C220.285 477.771 220.413 477.248 220.52 476.736C220.626 476.213 220.701 475.717 220.744 475.248L222.168 475.552C222.146 475.669 222.114 475.797 222.072 475.936C222.029 476.064 221.992 476.197 221.96 476.336C221.928 476.475 221.901 476.603 221.88 476.72C221.826 476.965 221.752 477.285 221.656 477.68C221.56 478.075 221.448 478.507 221.32 478.976C221.192 479.445 221.053 479.92 220.904 480.4C220.754 480.869 220.594 481.307 220.424 481.712C220.232 482.203 220.008 482.709 219.752 483.232C219.506 483.744 219.24 484.245 218.952 484.736C218.664 485.227 218.37 485.685 218.072 486.112L216.712 485.536C217.213 484.864 217.677 484.139 218.104 483.36C218.541 482.571 218.898 481.845 219.176 481.184ZM227.048 480.576C226.888 480.16 226.712 479.723 226.52 479.264C226.328 478.805 226.125 478.347 225.912 477.888C225.698 477.419 225.49 476.981 225.288 476.576C225.096 476.16 224.909 475.808 224.727 475.52L226.024 475.088C226.184 475.365 226.36 475.707 226.552 476.112C226.754 476.517 226.962 476.949 227.176 477.408C227.389 477.867 227.597 478.331 227.8 478.8C228.002 479.269 228.189 479.717 228.36 480.144C228.52 480.539 228.69 480.981 228.872 481.472C229.053 481.952 229.229 482.443 229.4 482.944C229.581 483.435 229.746 483.915 229.896 484.384C230.045 484.843 230.173 485.253 230.28 485.616L228.856 486.08C228.728 485.536 228.562 484.949 228.36 484.32C228.168 483.68 227.96 483.04 227.736 482.4C227.512 481.749 227.282 481.141 227.048 480.576ZM236.504 473.712C236.738 473.84 237.016 474.005 237.336 474.208C237.656 474.411 237.986 474.624 238.328 474.848C238.669 475.072 238.984 475.285 239.272 475.488C239.57 475.68 239.805 475.84 239.976 475.968L239.224 477.056C239.032 476.917 238.792 476.747 238.504 476.544C238.216 476.341 237.906 476.133 237.576 475.92C237.245 475.696 236.92 475.488 236.6 475.296C236.29 475.093 236.018 474.923 235.784 474.784L236.504 473.712ZM234.104 485.152C234.69 485.045 235.293 484.907 235.911 484.736C236.53 484.555 237.144 484.347 237.752 484.112C238.36 483.867 238.93 483.589 239.464 483.28C240.349 482.768 241.17 482.203 241.928 481.584C242.685 480.965 243.368 480.304 243.976 479.6C244.584 478.896 245.101 478.171 245.528 477.424L246.296 478.736C245.602 479.813 244.722 480.848 243.656 481.84C242.6 482.832 241.432 483.707 240.152 484.464C239.608 484.773 239.016 485.061 238.376 485.328C237.746 485.584 237.122 485.808 236.504 486C235.896 486.192 235.341 486.341 234.84 486.448L234.104 485.152ZM234.088 477.312C234.322 477.429 234.605 477.589 234.936 477.792C235.266 477.984 235.602 478.187 235.944 478.4C236.285 478.603 236.605 478.8 236.904 478.992C237.202 479.184 237.437 479.344 237.608 479.472L236.872 480.592C236.669 480.443 236.418 480.272 236.12 480.08C235.832 479.877 235.522 479.675 235.192 479.472C234.861 479.259 234.536 479.056 234.216 478.864C233.896 478.672 233.618 478.517 233.384 478.4L234.088 477.312ZM249.32 479.072C249.48 479.083 249.677 479.099 249.912 479.12C250.146 479.131 250.402 479.141 250.68 479.152C250.968 479.152 251.256 479.152 251.544 479.152C251.714 479.152 251.976 479.152 252.328 479.152C252.69 479.152 253.112 479.152 253.592 479.152C254.072 479.152 254.578 479.152 255.112 479.152C255.656 479.152 256.194 479.152 256.727 479.152C257.272 479.152 257.784 479.152 258.264 479.152C258.754 479.152 259.176 479.152 259.528 479.152C259.88 479.152 260.141 479.152 260.312 479.152C260.717 479.152 261.064 479.141 261.352 479.12C261.64 479.099 261.869 479.083 262.04 479.072V480.64C261.88 480.629 261.64 480.613 261.32 480.592C261.01 480.571 260.68 480.56 260.328 480.56C260.157 480.56 259.89 480.56 259.528 480.56C259.165 480.56 258.744 480.56 258.264 480.56C257.794 480.56 257.288 480.56 256.744 480.56C256.2 480.56 255.656 480.56 255.112 480.56C254.578 480.56 254.072 480.56 253.592 480.56C253.122 480.56 252.706 480.56 252.344 480.56C251.981 480.56 251.714 480.56 251.544 480.56C251.106 480.56 250.69 480.571 250.296 480.592C249.901 480.603 249.576 480.619 249.32 480.64V479.072ZM275.768 474.176C275.768 474.464 275.864 474.709 276.056 474.912C276.258 475.104 276.498 475.2 276.776 475.2C277.064 475.2 277.309 475.104 277.512 474.912C277.714 474.709 277.816 474.464 277.816 474.176C277.816 473.888 277.714 473.648 277.512 473.456C277.309 473.253 277.064 473.152 276.776 473.152C276.498 473.152 276.258 473.253 276.056 473.456C275.864 473.648 275.768 473.888 275.768 474.176ZM275.032 474.176C275.032 473.856 275.112 473.563 275.272 473.296C275.432 473.029 275.64 472.816 275.896 472.656C276.162 472.496 276.456 472.416 276.776 472.416C277.106 472.416 277.405 472.496 277.672 472.656C277.938 472.816 278.146 473.029 278.296 473.296C278.456 473.563 278.536 473.856 278.536 474.176C278.536 474.496 278.456 474.789 278.296 475.056C278.146 475.323 277.938 475.536 277.672 475.696C277.405 475.845 277.106 475.92 276.776 475.92C276.456 475.92 276.162 475.845 275.896 475.696C275.64 475.536 275.432 475.323 275.272 475.056C275.112 474.789 275.032 474.496 275.032 474.176ZM272.36 473.664C272.349 473.739 272.333 473.845 272.312 473.984C272.301 474.123 272.29 474.267 272.28 474.416C272.269 474.565 272.264 474.699 272.264 474.816C272.264 475.093 272.264 475.413 272.264 475.776C272.264 476.139 272.264 476.496 272.264 476.848C272.264 477.2 272.264 477.509 272.264 477.776C272.264 477.989 272.264 478.299 272.264 478.704C272.264 479.109 272.264 479.568 272.264 480.08C272.264 480.592 272.264 481.12 272.264 481.664C272.264 482.197 272.264 482.715 272.264 483.216C272.264 483.717 272.264 484.16 272.264 484.544C272.264 484.928 272.264 485.216 272.264 485.408C272.264 485.835 272.157 486.155 271.944 486.368C271.73 486.581 271.378 486.688 270.888 486.688C270.664 486.688 270.413 486.683 270.136 486.672C269.869 486.661 269.602 486.645 269.336 486.624C269.069 486.603 268.829 486.587 268.616 486.576L268.504 485.296C268.856 485.36 269.197 485.408 269.528 485.44C269.858 485.472 270.13 485.488 270.344 485.488C270.557 485.488 270.712 485.44 270.808 485.344C270.904 485.237 270.957 485.083 270.968 484.88C270.968 484.731 270.968 484.475 270.968 484.112C270.968 483.739 270.968 483.312 270.968 482.832C270.968 482.341 270.968 481.829 270.968 481.296C270.968 480.752 270.968 480.24 270.968 479.76C270.968 479.269 270.968 478.848 270.968 478.496C270.968 478.144 270.968 477.904 270.968 477.776C270.968 477.595 270.968 477.323 270.968 476.96C270.968 476.597 270.968 476.219 270.968 475.824C270.968 475.419 270.968 475.077 270.968 474.8C270.968 474.629 270.952 474.427 270.92 474.192C270.898 473.957 270.877 473.781 270.856 473.664H272.36ZM265.16 476.368C265.384 476.389 265.602 476.411 265.816 476.432C266.029 476.443 266.264 476.448 266.52 476.448C266.648 476.448 266.909 476.448 267.304 476.448C267.698 476.448 268.173 476.448 268.728 476.448C269.293 476.448 269.896 476.448 270.536 476.448C271.176 476.448 271.816 476.448 272.456 476.448C273.106 476.448 273.709 476.448 274.264 476.448C274.829 476.448 275.304 476.448 275.688 476.448C276.082 476.448 276.349 476.448 276.488 476.448C276.68 476.448 276.893 476.443 277.128 476.432C277.373 476.411 277.597 476.389 277.8 476.368V477.696C277.586 477.685 277.362 477.68 277.128 477.68C276.904 477.669 276.696 477.664 276.504 477.664C276.365 477.664 276.098 477.664 275.704 477.664C275.32 477.664 274.845 477.664 274.28 477.664C273.725 477.664 273.128 477.664 272.488 477.664C271.848 477.664 271.208 477.664 270.568 477.664C269.928 477.664 269.325 477.664 268.76 477.664C268.194 477.664 267.714 477.664 267.32 477.664C266.936 477.664 266.669 477.664 266.52 477.664C266.285 477.664 266.05 477.669 265.816 477.68C265.592 477.68 265.373 477.691 265.16 477.712V476.368ZM268.84 480.128C268.669 480.469 268.456 480.843 268.2 481.248C267.954 481.653 267.682 482.064 267.384 482.48C267.096 482.885 266.808 483.264 266.52 483.616C266.242 483.968 265.992 484.267 265.768 484.512L264.664 483.776C264.93 483.531 265.208 483.237 265.496 482.896C265.784 482.544 266.066 482.176 266.344 481.792C266.632 481.408 266.893 481.029 267.128 480.656C267.362 480.272 267.56 479.915 267.72 479.584L268.84 480.128ZM275.528 479.6C275.741 479.856 275.97 480.16 276.216 480.512C276.472 480.864 276.728 481.243 276.984 481.648C277.25 482.043 277.496 482.427 277.72 482.8C277.944 483.163 278.136 483.488 278.296 483.776L277.112 484.432C276.962 484.112 276.776 483.76 276.552 483.376C276.338 482.992 276.109 482.603 275.864 482.208C275.618 481.813 275.368 481.44 275.112 481.088C274.866 480.736 274.642 480.432 274.44 480.176L275.528 479.6ZM292.104 473.856C292.093 474.059 292.082 474.277 292.072 474.512C292.061 474.736 292.056 474.981 292.056 475.248C292.056 475.461 292.056 475.733 292.056 476.064C292.056 476.395 292.056 476.725 292.056 477.056C292.056 477.376 292.056 477.637 292.056 477.84C292.056 478.8 292.018 479.616 291.944 480.288C291.88 480.96 291.778 481.536 291.64 482.016C291.512 482.485 291.341 482.901 291.128 483.264C290.914 483.627 290.664 483.979 290.376 484.32C290.034 484.725 289.64 485.083 289.192 485.392C288.754 485.691 288.306 485.941 287.848 486.144C287.389 486.357 286.962 486.528 286.568 486.656L285.528 485.552C286.264 485.371 286.957 485.115 287.608 484.784C288.269 484.443 288.85 483.989 289.352 483.424C289.64 483.093 289.869 482.757 290.04 482.416C290.221 482.064 290.354 481.675 290.44 481.248C290.536 480.821 290.6 480.325 290.632 479.76C290.664 479.195 290.68 478.533 290.68 477.776C290.68 477.563 290.68 477.296 290.68 476.976C290.68 476.656 290.68 476.336 290.68 476.016C290.68 475.685 290.68 475.429 290.68 475.248C290.68 474.981 290.669 474.736 290.648 474.512C290.637 474.277 290.621 474.059 290.6 473.856H292.104ZM284.68 473.984C284.669 474.133 284.653 474.315 284.632 474.528C284.621 474.741 284.616 474.944 284.616 475.136C284.616 475.211 284.616 475.381 284.616 475.648C284.616 475.904 284.616 476.213 284.616 476.576C284.616 476.939 284.616 477.323 284.616 477.728C284.616 478.133 284.616 478.528 284.616 478.912C284.616 479.285 284.616 479.611 284.616 479.888C284.616 480.165 284.616 480.363 284.616 480.48C284.616 480.683 284.621 480.901 284.632 481.136C284.653 481.36 284.669 481.547 284.68 481.696H283.208C283.229 481.568 283.245 481.392 283.256 481.168C283.277 480.933 283.288 480.699 283.288 480.464C283.288 480.357 283.288 480.165 283.288 479.888C283.288 479.6 283.288 479.269 283.288 478.896C283.288 478.523 283.288 478.133 283.288 477.728C283.288 477.323 283.288 476.939 283.288 476.576C283.288 476.213 283.288 475.904 283.288 475.648C283.288 475.381 283.288 475.211 283.288 475.136C283.288 474.997 283.282 474.811 283.272 474.576C283.261 474.331 283.245 474.133 283.224 473.984H284.68ZM300.504 473.712C300.738 473.84 301.016 474.005 301.336 474.208C301.656 474.411 301.986 474.624 302.328 474.848C302.669 475.072 302.984 475.285 303.272 475.488C303.57 475.68 303.805 475.84 303.976 475.968L303.224 477.056C303.032 476.917 302.792 476.747 302.504 476.544C302.216 476.341 301.906 476.133 301.576 475.92C301.245 475.696 300.92 475.488 300.6 475.296C300.29 475.093 300.018 474.923 299.784 474.784L300.504 473.712ZM298.104 485.152C298.69 485.045 299.293 484.907 299.911 484.736C300.53 484.555 301.144 484.347 301.752 484.112C302.36 483.867 302.93 483.589 303.464 483.28C304.349 482.768 305.17 482.203 305.928 481.584C306.685 480.965 307.368 480.304 307.976 479.6C308.584 478.896 309.101 478.171 309.528 477.424L310.296 478.736C309.602 479.813 308.722 480.848 307.656 481.84C306.6 482.832 305.432 483.707 304.152 484.464C303.608 484.773 303.016 485.061 302.376 485.328C301.746 485.584 301.122 485.808 300.504 486C299.896 486.192 299.341 486.341 298.84 486.448L298.104 485.152ZM298.088 477.312C298.322 477.429 298.605 477.589 298.936 477.792C299.266 477.984 299.602 478.187 299.944 478.4C300.285 478.603 300.605 478.8 300.904 478.992C301.202 479.184 301.437 479.344 301.608 479.472L300.872 480.592C300.669 480.443 300.418 480.272 300.12 480.08C299.832 479.877 299.522 479.675 299.192 479.472C298.861 479.259 298.536 479.056 298.216 478.864C297.896 478.672 297.618 478.517 297.384 478.4L298.088 477.312ZM313.32 479.072C313.48 479.083 313.677 479.099 313.912 479.12C314.146 479.131 314.402 479.141 314.68 479.152C314.968 479.152 315.256 479.152 315.544 479.152C315.714 479.152 315.976 479.152 316.328 479.152C316.69 479.152 317.112 479.152 317.592 479.152C318.072 479.152 318.578 479.152 319.112 479.152C319.656 479.152 320.194 479.152 320.727 479.152C321.272 479.152 321.784 479.152 322.264 479.152C322.754 479.152 323.176 479.152 323.528 479.152C323.88 479.152 324.141 479.152 324.312 479.152C324.717 479.152 325.064 479.141 325.352 479.12C325.64 479.099 325.869 479.083 326.04 479.072V480.64C325.88 480.629 325.64 480.613 325.32 480.592C325.01 480.571 324.68 480.56 324.328 480.56C324.157 480.56 323.89 480.56 323.528 480.56C323.165 480.56 322.744 480.56 322.264 480.56C321.794 480.56 321.288 480.56 320.744 480.56C320.2 480.56 319.656 480.56 319.112 480.56C318.578 480.56 318.072 480.56 317.592 480.56C317.122 480.56 316.706 480.56 316.344 480.56C315.981 480.56 315.714 480.56 315.544 480.56C315.106 480.56 314.69 480.571 314.296 480.592C313.901 480.603 313.576 480.619 313.32 480.64V479.072Z" fill="black"/>
<rect x="1270.5" y="454.5" width="49" height="49" rx="24.5" stroke="#D5D7DA"/>
<path d="M1292 485L1298 479L1292 473" stroke="#414651" stroke-width="2" stroke-linecap="round" stroke-linejoin="round"/>
<mask id="path-17-inside-3_151_3899" fill="white">
<path d="M120 528H1320V626H120V528Z"/>
</mask>
<path d="M1320 626V625H120V626V627H1320V626Z" fill="#E9EAEB" mask="url(#path-17-inside-3_151_3899)"/>
<rect x="120" y="559" width="36" height="36" rx="18" fill="#F5F5F5"/>
<g clip-path="url(#clip2_151_3899)">
<path d="M139.667 568.891V572.333C139.667 572.8 139.667 573.034 139.758 573.212C139.838 573.369 139.966 573.496 140.122 573.576C140.301 573.667 140.534 573.667 141.001 573.667H144.443M139.667 581.167H134.667M141.334 577.833H134.667M144.667 575.324V581.333C144.667 582.734 144.667 583.434 144.395 583.968C144.155 584.439 143.773 584.821 143.302 585.061C142.768 585.333 142.067 585.333 140.667 585.333H135.334C133.934 585.333 133.234 585.333 132.699 585.061C132.229 584.821 131.846 584.439 131.606 583.968C131.334 583.434 131.334 582.734 131.334 581.333V572.667C131.334 571.267 131.334 570.567 131.606 570.032C131.846 569.561 132.229 569.179 132.699 568.939C133.234 568.667 133.934 568.667 135.334 568.667H138.01C138.622 568.667 138.928 568.667 139.215 568.736C139.47 568.797 139.714 568.898 139.938 569.035C140.19 569.19 140.407 569.406 140.839 569.838L143.496 572.495C143.928 572.928 144.144 573.144 144.299 573.396C144.436 573.62 144.537 573.864 144.598 574.119C144.667 574.406 144.667 574.712 144.667 575.324Z" stroke="#414651" stroke-width="1.67" stroke-linecap="round" stroke-linejoin="round"/>
</g>
<path d="M168.8 575.376H176.416V576.496H168.8V575.376ZM177.488 572.464H178.656V581.296H177.488V572.464ZM172.144 571.904H173.328V585.248H172.144V571.904ZM181.408 570.864H182.608V583.68C182.608 584.096 182.549 584.405 182.432 584.608C182.325 584.811 182.144 584.965 181.888 585.072C181.621 585.168 181.253 585.227 180.784 585.248C180.325 585.28 179.728 585.296 178.992 585.296C178.971 585.179 178.933 585.045 178.88 584.896C178.827 584.757 178.773 584.613 178.72 584.464C178.667 584.315 178.608 584.187 178.544 584.08C179.109 584.091 179.621 584.096 180.08 584.096C180.539 584.096 180.843 584.096 180.992 584.096C181.141 584.085 181.248 584.053 181.312 584C181.376 583.936 181.408 583.829 181.408 583.68V570.864ZM175.328 570.656L176.224 571.568C175.616 571.813 174.907 572.037 174.096 572.24C173.285 572.443 172.443 572.619 171.568 572.768C170.704 572.917 169.867 573.045 169.056 573.152C169.024 573.013 168.971 572.853 168.896 572.672C168.832 572.491 168.757 572.336 168.672 572.208C169.269 572.123 169.877 572.027 170.496 571.92C171.125 571.803 171.733 571.68 172.32 571.552C172.917 571.413 173.472 571.269 173.984 571.12C174.507 570.971 174.955 570.816 175.328 570.656ZM172.112 575.888L172.96 576.256C172.757 576.864 172.512 577.488 172.224 578.128C171.936 578.768 171.621 579.392 171.28 580C170.939 580.608 170.581 581.179 170.208 581.712C169.835 582.235 169.461 582.683 169.088 583.056C169.045 582.939 168.981 582.816 168.896 582.688C168.821 582.549 168.741 582.411 168.656 582.272C168.581 582.133 168.507 582.016 168.432 581.92C168.795 581.589 169.152 581.195 169.504 580.736C169.867 580.267 170.213 579.76 170.544 579.216C170.875 578.672 171.173 578.117 171.44 577.552C171.717 576.976 171.941 576.421 172.112 575.888ZM173.168 577.552C173.328 577.659 173.552 577.835 173.84 578.08C174.139 578.325 174.459 578.592 174.8 578.88C175.141 579.168 175.451 579.435 175.728 579.68C176.016 579.925 176.224 580.107 176.352 580.224L175.664 581.232C175.504 581.051 175.285 580.821 175.008 580.544C174.731 580.256 174.437 579.963 174.128 579.664C173.819 579.365 173.52 579.083 173.232 578.816C172.944 578.549 172.704 578.341 172.512 578.192L173.168 577.552ZM187.136 571.68H197.488V572.832H187.136V571.68ZM187.136 575.408H197.456V576.544H187.136V575.408ZM187.04 579.232H197.488V580.368H187.04V579.232ZM186.448 571.68H187.632V577.488C187.632 578.096 187.605 578.747 187.552 579.44C187.499 580.133 187.397 580.837 187.248 581.552C187.109 582.256 186.891 582.933 186.592 583.584C186.304 584.235 185.92 584.827 185.44 585.36C185.387 585.275 185.301 585.179 185.184 585.072C185.067 584.976 184.949 584.88 184.832 584.784C184.715 584.688 184.608 584.619 184.512 584.576C184.96 584.075 185.312 583.531 185.568 582.944C185.824 582.357 186.016 581.755 186.144 581.136C186.272 580.507 186.352 579.883 186.384 579.264C186.427 578.645 186.448 578.053 186.448 577.488V571.68ZM197.008 571.68H198.192V583.648C198.192 584.032 198.133 584.325 198.016 584.528C197.909 584.731 197.723 584.885 197.456 584.992C197.189 585.088 196.816 585.147 196.336 585.168C195.856 585.189 195.237 585.195 194.48 585.184C194.448 585.035 194.389 584.843 194.304 584.608C194.229 584.384 194.149 584.192 194.064 584.032C194.437 584.043 194.795 584.048 195.136 584.048C195.488 584.059 195.792 584.059 196.048 584.048C196.304 584.048 196.48 584.048 196.576 584.048C196.736 584.037 196.848 584.005 196.912 583.952C196.976 583.899 197.008 583.797 197.008 583.648V571.68ZM191.472 572.112H192.688V585.136H191.472V572.112ZM201.04 573.216H206.736V574.304H201.04V573.216ZM200.704 576.928H207.04V578.032H200.704V576.928ZM203.344 570.72H204.48V576.256C204.48 576.96 204.448 577.712 204.384 578.512C204.331 579.301 204.203 580.096 204 580.896C203.808 581.685 203.504 582.443 203.088 583.168C202.683 583.883 202.128 584.528 201.424 585.104C201.371 585.008 201.296 584.907 201.2 584.8C201.104 584.693 201.003 584.587 200.896 584.48C200.8 584.373 200.704 584.288 200.608 584.224C201.259 583.733 201.771 583.163 202.144 582.512C202.517 581.851 202.784 581.157 202.944 580.432C203.115 579.707 203.221 578.987 203.264 578.272C203.317 577.557 203.344 576.885 203.344 576.256V570.72ZM204.224 578.832C204.331 578.928 204.48 579.083 204.672 579.296C204.875 579.509 205.093 579.749 205.328 580.016C205.573 580.272 205.813 580.533 206.048 580.8C206.293 581.067 206.507 581.307 206.688 581.52C206.88 581.733 207.013 581.888 207.088 581.984L206.272 582.88C206.133 582.677 205.941 582.416 205.696 582.096C205.451 581.776 205.189 581.445 204.912 581.104C204.635 580.752 204.368 580.427 204.112 580.128C203.856 579.829 203.648 579.595 203.488 579.424L204.224 578.832ZM208.752 574.848V576.416H213.344V574.848H208.752ZM208.752 577.408V579.024H213.344V577.408H208.752ZM208.752 572.272V573.84H213.344V572.272H208.752ZM207.632 571.184H214.496V580.096H207.632V571.184ZM211.456 579.632H212.592V583.504C212.592 583.685 212.613 583.803 212.656 583.856C212.699 583.909 212.805 583.936 212.976 583.936C213.029 583.936 213.125 583.936 213.264 583.936C213.403 583.936 213.541 583.936 213.68 583.936C213.829 583.936 213.936 583.936 214 583.936C214.117 583.936 214.203 583.888 214.256 583.792C214.32 583.696 214.363 583.499 214.384 583.2C214.416 582.901 214.437 582.437 214.448 581.808C214.533 581.872 214.635 581.936 214.752 582C214.869 582.064 214.992 582.117 215.12 582.16C215.259 582.203 215.376 582.24 215.472 582.272C215.44 582.997 215.376 583.557 215.28 583.952C215.195 584.347 215.061 584.619 214.88 584.768C214.699 584.917 214.448 584.992 214.128 584.992C214.075 584.992 213.984 584.992 213.856 584.992C213.739 584.992 213.611 584.992 213.472 584.992C213.333 584.992 213.2 584.992 213.072 584.992C212.955 584.992 212.869 584.992 212.816 584.992C212.453 584.992 212.171 584.949 211.968 584.864C211.776 584.779 211.643 584.624 211.568 584.4C211.493 584.187 211.456 583.888 211.456 583.504V579.632ZM208.944 579.84H210.096C210.021 580.48 209.904 581.077 209.744 581.632C209.595 582.176 209.376 582.677 209.088 583.136C208.811 583.584 208.437 583.984 207.968 584.336C207.499 584.699 206.912 585.008 206.208 585.264C206.155 585.125 206.053 584.965 205.904 584.784C205.765 584.613 205.637 584.475 205.52 584.368C206.373 584.091 207.035 583.733 207.504 583.296C207.973 582.859 208.309 582.352 208.512 581.776C208.725 581.189 208.869 580.544 208.944 579.84ZM224.192 577.424L225.168 576.928C225.467 577.312 225.765 577.723 226.064 578.16C226.363 578.597 226.629 579.035 226.864 579.472C227.109 579.899 227.296 580.283 227.424 580.624L226.352 581.184C226.245 580.843 226.075 580.453 225.84 580.016C225.616 579.579 225.36 579.136 225.072 578.688C224.784 578.229 224.491 577.808 224.192 577.424ZM224.272 573.456H230.368V574.592H224.272V573.456ZM229.872 573.456H231.04C231.04 573.456 231.04 573.499 231.04 573.584C231.04 573.659 231.04 573.744 231.04 573.84C231.04 573.936 231.035 574.011 231.024 574.064C230.96 575.877 230.891 577.408 230.816 578.656C230.752 579.904 230.672 580.933 230.576 581.744C230.491 582.544 230.389 583.168 230.272 583.616C230.155 584.064 230.011 584.384 229.84 584.576C229.669 584.811 229.483 584.971 229.28 585.056C229.077 585.141 228.827 585.2 228.528 585.232C228.261 585.264 227.899 585.275 227.44 585.264C226.981 585.253 226.512 585.237 226.032 585.216C226.021 585.035 225.979 584.827 225.904 584.592C225.84 584.368 225.755 584.176 225.648 584.016C226.181 584.059 226.672 584.085 227.12 584.096C227.579 584.107 227.904 584.112 228.096 584.112C228.267 584.112 228.405 584.096 228.512 584.064C228.619 584.032 228.715 583.963 228.8 583.856C228.939 583.717 229.061 583.435 229.168 583.008C229.275 582.571 229.371 581.957 229.456 581.168C229.541 580.379 229.616 579.371 229.68 578.144C229.744 576.917 229.808 575.44 229.872 573.712V573.456ZM224.88 570.544L226.096 570.816C225.872 571.584 225.6 572.341 225.28 573.088C224.971 573.824 224.629 574.512 224.256 575.152C223.883 575.792 223.493 576.357 223.088 576.848C223.003 576.784 222.896 576.709 222.768 576.624C222.64 576.528 222.507 576.437 222.368 576.352C222.229 576.256 222.107 576.181 222 576.128C222.427 575.68 222.816 575.163 223.168 574.576C223.531 573.979 223.856 573.333 224.144 572.64C224.432 571.947 224.677 571.248 224.88 570.544ZM219.12 570.56L220.192 570.976C220 571.36 219.787 571.765 219.552 572.192C219.317 572.619 219.088 573.029 218.864 573.424C218.64 573.808 218.421 574.149 218.208 574.448L217.376 574.08C217.579 573.771 217.787 573.413 218 573.008C218.213 572.592 218.421 572.171 218.624 571.744C218.827 571.307 218.992 570.912 219.12 570.56ZM221.056 572.384L222.112 572.832C221.739 573.44 221.323 574.08 220.864 574.752C220.416 575.413 219.963 576.059 219.504 576.688C219.045 577.317 218.613 577.861 218.208 578.32L217.44 577.92C217.749 577.557 218.069 577.147 218.4 576.688C218.731 576.229 219.056 575.749 219.376 575.248C219.707 574.747 220.016 574.251 220.304 573.76C220.592 573.269 220.843 572.811 221.056 572.384ZM216.608 573.936L217.2 573.136C217.499 573.381 217.803 573.653 218.112 573.952C218.421 574.251 218.704 574.549 218.96 574.848C219.216 575.136 219.413 575.397 219.552 575.632L218.912 576.56C218.763 576.304 218.56 576.021 218.304 575.712C218.059 575.403 217.787 575.093 217.488 574.784C217.189 574.475 216.896 574.192 216.608 573.936ZM220.544 576.096L221.44 575.712C221.675 576.064 221.899 576.437 222.112 576.832C222.325 577.227 222.512 577.611 222.672 577.984C222.843 578.357 222.965 578.693 223.04 578.992L222.096 579.44C222.011 579.141 221.888 578.8 221.728 578.416C221.568 578.032 221.387 577.637 221.184 577.232C220.981 576.827 220.768 576.448 220.544 576.096ZM216.576 577.712C217.291 577.691 218.149 577.664 219.152 577.632C220.155 577.589 221.184 577.541 222.24 577.488V578.48C221.227 578.544 220.235 578.603 219.264 578.656C218.293 578.709 217.429 578.757 216.672 578.8L216.576 577.712ZM220.96 579.936L221.856 579.632C222.091 580.123 222.309 580.656 222.512 581.232C222.725 581.808 222.875 582.304 222.96 582.72L221.968 583.056C221.893 582.629 221.76 582.128 221.568 581.552C221.376 580.965 221.173 580.427 220.96 579.936ZM217.456 579.712L218.48 579.888C218.373 580.645 218.224 581.392 218.032 582.128C217.84 582.853 217.616 583.472 217.36 583.984C217.285 583.931 217.189 583.877 217.072 583.824C216.965 583.771 216.848 583.717 216.72 583.664C216.603 583.6 216.496 583.552 216.4 583.52C216.677 583.029 216.896 582.448 217.056 581.776C217.227 581.093 217.36 580.405 217.456 579.712ZM219.296 578.176H220.384V585.312H219.296V578.176Z" fill="black"/>
<rect x="1270.5" y="552.5" width="49" height="49" rx="24.5" stroke="#D5D7DA"/>
<path d="M1292 583L1298 577L1292 571" stroke="#414651" stroke-width="2" stroke-linecap="round" stroke-linejoin="round"/>
<defs>
<clipPath id="clip0_151_3899">
<rect width="20" height="20" fill="white" transform="translate(128 371)"/>
</clipPath>
<clipPath id="clip1_151_3899">
<rect width="20" height="20" fill="white" transform="translate(128 469)"/>
</clipPath>
<clipPath id="clip2_151_3899">
<rect width="20" height="20" fill="white" transform="translate(128 567)"/>
</clipPath>
</defs>
</svg>
